<?xml version="1.0" encoding="utf-8"?>
<!-- Generator: Adobe Illustrator 24.2.1, SVG Export Plug-In . SVG Version: 6.00 Build 0)  -->
<svg version="1.1" id="Layer_1" xmlns="http://www.w3.org/2000/svg" xmlns:xlink="http://www.w3.org/1999/xlink" x="0px" y="0px"
	 viewBox="0 0 302 302" style="enable-background:new 0 0 302 302;" xml:space="preserve">
<style type="text/css">
	.st0{fill:#F47825;}
</style>
<g id="Layer_2_1_">
	<g id="Layer_1-2">
		<path class="st0" d="M151,0C67.6,0,0,67.6,0,151s67.6,151,151,151s151-67.6,151-151S234.4,0,151,0z M88.3,58.2
			c0.3-0.3,28.4-25.5,69.8,2c0.1,0.1,0.3,0.2,0.4,0.3c-17.3,4.3-33.4,12.7-46.8,24.4c-0.3-0.5-0.5-1-0.6-1.5
			c-1.3-9.5-15.9-16.5-21.4-18.5c-1.3-0.5-2.3-1.6-2.6-3C86.8,60.6,87.3,59.1,88.3,58.2z M171.1,174.9c-0.1,0-0.3,0-0.4,0
			c-1.3,0-2.4-0.6-3.2-1.6c-0.8-1.1-1-2.6-0.5-3.9c2.2-5.2,2.7-11.1,1.4-16.6c10.9-3,22.1-4.8,33.3-5.2
			C199,166.7,180.9,173.8,171.1,174.9z M245.3,142c-0.2,0-0.4,0-0.5-0.1c-1.1-0.2-106.1-18.9-130.3,47.4
			c17.9,9.7,29.9,40.1,30.4,41.5c0.8,2.1-0.2,4.4-2.3,5.2c-0.7,0.3-1.5,0.3-2.2,0.2c-9.9-2.1-19.6-5.1-28.9-9
			c-9-3.9-30,8.2-41.2,16.6c-1.2,0.9-2.7,1.1-4.1,0.5c-1.3-0.6-2.2-1.9-2.3-3.3c-2.3-29.4,13-43.8,19.4-48.3
			c-1.6-7.4-2.4-14.9-2.4-22.5c0.1-58,47-104.9,105-105c24.1,0,54.7,18.8,58.6,42.7c5.9,2.5,20,9.5,20,20.4c0.1,3.4-1.3,6.7-3.8,9
			C255.3,142.4,246.3,142.1,245.3,142z"/>
		<path class="st0" d="M193.5,86.4c-2.4,2.5-2.4,6.5,0.1,8.9c1.2,1.2,2.7,1.8,4.4,1.8s3.3-0.7,4.5-1.9c1.2-1.2,1.8-2.8,1.8-4.5
			c0-1.6-0.7-3.2-1.8-4.4C199.9,84.1,196,84.1,193.5,86.4z"/>
	</g>
</g>
</svg>
