<?xml version="1.0" encoding="utf-8"?>
<!-- Generator: Adobe Illustrator 24.2.1, SVG Export Plug-In . SVG Version: 6.00 Build 0)  -->
<svg version="1.1" id="Layer_1" xmlns="http://www.w3.org/2000/svg" xmlns:xlink="http://www.w3.org/1999/xlink" x="0px" y="0px"
	 viewBox="0 0 302 302" style="enable-background:new 0 0 302 302;" xml:space="preserve">
<style type="text/css">
	.st0{fill:#678D58;}
</style>
<g id="Layer_2_1_">
	<g id="Layer_1-2">
		<path class="st0" d="M202.1,130.8c-1.1-0.2-2.2-0.3-3.4-0.3c-12.6,0-22.7,10.2-22.7,22.7c0,12.6,10.2,22.7,22.7,22.7l0,0
			c1.1,0,2.3-0.1,3.4-0.3c-12.4-1.9-20.9-13.4-19.1-25.8C184.5,140.1,192.3,132.3,202.1,130.8z"/>
		<path class="st0" d="M221.2,137.9c-3.9,0-7.1,3.2-7.1,7.1c0,3.9,3.2,7.1,7.1,7.1s7.1-3.2,7.1-7.1l0,0
			C228.3,141.1,225.1,137.9,221.2,137.9z"/>
		<path class="st0" d="M151,0C67.6,0,0,67.6,0,151s67.6,151,151,151s151-67.6,151-151S234.4,0,151,0z M233.1,188
			C213,206.9,196,213.2,190,215c-0.4,0.1-0.8,0.2-1.1,0.2c0,0-40.7,13.1-50.6,3.3c-5.6-5.5-3.3-9.8-0.3-12.4c-3.1-1.4-6.2-3-9.1-4.6
			c-11.1,2-22.9,2.7-27.7-2c-9.8-9.8,4.8-15.5,4.8-15.5l0.5,0.1c-2.2-2.4-4.3-5-6.1-7.8c-12,15.9-25.6,28.4-37.3,26.3
			c-29.1-5.3-21.9-24.3-16-30.6c5-5.3,14.4-12,25.3-18.6c-10.8-6.7-20.2-13.3-25.3-18.6c-5.9-6.3-13.1-25.3,16-30.6
			c11.8-2.1,25.3,10.4,37.3,26.3c5.3-7.6,11.9-14.2,19.5-19.4l0,0c0,0-20-6.4-7.6-24.2c12.7-18.2,79.6,6.2,79.6,6.2l0,0
			c15.3,4.5,30,12.4,39.9,24.5l28.5,33.5C260.3,161,238.6,182.6,233.1,188z"/>
	</g>
</g>
</svg>
