<?xml version="1.0" encoding="utf-8"?>
<!-- Generator: Adobe Illustrator 24.2.1, SVG Export Plug-In . SVG Version: 6.00 Build 0)  -->
<svg version="1.1" id="Layer_1" xmlns="http://www.w3.org/2000/svg" xmlns:xlink="http://www.w3.org/1999/xlink" x="0px" y="0px"
	 viewBox="0 0 302 302" style="enable-background:new 0 0 302 302;" xml:space="preserve">
<style type="text/css">
	.st0{fill:#F47825;}
</style>
<g id="Layer_2_1_">
	<g id="Layer_1-2">
		<ellipse class="st0" cx="141.5" cy="86.4" rx="4.3" ry="4.3"/>
		<path class="st0" d="M151,0C67.6,0,0,67.6,0,151s67.6,151,151,151s151-67.6,151-151S234.4,0,151,0z M197,108.7
			c-0.2-2.4-0.8-4.7-1.7-6.9c-0.2,0-0.3-0.1-0.3-0.3l0,0c0.7,0.5,1.4,1.1,2,1.7c4.7,4.4,9,9.1,13,14.2c2.3,3.2,4.6,6.7,6.9,10.1
			c0,0.6,0.3,1.2,0.3,1.7c0.3,1.2,0.3,2.5,0.3,3.8c0,1.4-0.1,2.7-0.3,4.1c-0.2,1.5-0.6,2.9-1.2,4.3c-0.6,1.5-1.2,3-2,4.4
			c-0.6,1.5-1.5,2.9-2.6,4c-1.9,2.5-4.3,4.5-6.9,6.1c-2.3,1.3-4.9,2-7.5,2c-1.2,0-2.4-0.2-3.5-0.6c-0.9-0.2-1.8-0.6-2.6-1.1
			c-0.3,0-0.3-0.3-0.6-0.3l-0.6-0.6c-3.1-3.4-6.4-6.5-10.1-9.2c-1.5-1.2-3-2.2-4.6-3.2h0.6c2.2,0,4.4-0.6,6.4-1.7
			c2.1-1.2,4.1-2.6,5.8-4.3c1.8-1.8,3.3-3.9,4.6-6.1c1.3-2.3,2.4-4.7,3.2-7.2c0.9-2.6,1.2-5.2,1.7-7.2
			C197.4,113.7,197.3,111.2,197,108.7z M101.5,105.5v-0.3c-10.4-0.9-20-4.3-25.2-10.1c-4.6-4.8-6.1-11.7-4-18
			c2-6.9,7.5-12.7,15.9-16.8c17.4-8.4,44.6-7.5,70.6,2.3c12.2,4.6,21.4,4.6,25.5,0c2.6-2.9,2.9-7.2,0.9-11.3c-2.4-4.8-7.6-7.6-13-7
			c-1.2,0.1-2.2-0.8-2.3-2s0.8-2.2,2-2.3c9-0.9,14.8,4,17.4,9.3c2.9,5.8,2.3,12.2-1.4,16.2c-3.2,3.5-11.3,8.4-30.1,1.2
			c-25.2-9.5-50.9-10.4-67.4-2.3c-6.9,3.5-11.9,8.4-13.6,14.2c-1.7,4.7-0.6,10,2.9,13.6c7.2,7.8,23.2,10.7,38.8,7.8
			c-6.1-2.6-19.4-8.4-28.4-11.9c-1.1-0.5-1.6-1.9-1-3c0.2-0.5,0.6-0.8,1-1c22.3-9.8,53.6-15,71.5-6.4c1.7,0.6,3.3,1.4,4.9,2.3
			c0,0,3.2,2,9,5.5c2.6,1.7,6.1,4,9.8,6.9c0.3,0.6,0.9,1.2,1.2,1.7s0.6,1.4,0.9,2c0.3,0.6,0.6,1.3,0.9,2c2.2,7.4,2.1,15.3-0.3,22.6
			c-0.6,2-1.4,3.9-2.3,5.8c-0.8,1.7-1.8,3.4-2.9,4.9c-1,1.5-2.3,2.9-3.8,4c-1.2,1.1-2.6,2-4.1,2.6c-1.3,0.5-2.7,0.9-4.1,1.2h-2.3
			c-0.3-0.3-0.6-0.3-0.9-0.6c-2.6,3.8-4.9,10.4-4,15.6c0.3,2.4-1.4,4.5-3.8,4.9h-0.6c-2.2,0-4-1.6-4.3-3.8
			c-0.9-6.7,1.1-14.8,4.6-20.6c0-0.2-0.1-0.3-0.3-0.3l0,0c-1.2-0.6-2.5-1-3.8-1.4c-2.3,2.9-5.2,12.2-4.6,18.5
			c0.2,2.3-1.4,4.4-3.8,4.6l0,0h-0.6c-2.2,0.1-4.1-1.6-4.3-3.8c-0.4-7.5,1.1-14.9,4.6-21.6c-1.4-0.5-2.9-0.9-4.3-1.1
			c-4.1,4.3-5.8,11-4.6,18.2c0.5,2.2-0.9,4.4-3.1,4.9c-0.1,0-0.2,0-0.4,0.1h-0.9c-2.1,0-3.9-1.4-4.4-3.5c-1.4-8.1,0.3-16.2,4.6-21.7
			C117.7,122.3,108.2,114.2,101.5,105.5L101.5,105.5z M195.6,234.6c-2.9,1.4-5.8,2.9-8.7,4.1c-13.6,7.8-37.1,25.5-48.6,23.2
			c-9.9-2.3-26.6-17.9-13-22.9l2.6-0.9c0.6-0.3,1.1-0.3,1.7-0.6c8.2-2.1,16.5-3.4,24.9-4.1c-5.5-3.2-15.1-2.9-24.9-1.7
			c0.3-6.4,3.5-12.7,9.8-12.4c10.7,0.6,29.8,2.9,42,11c2.3-1.8,4.6-3.7,6.6-5.8c3.3-3.1,6.1-6.6,8.4-10.4c0.2,0.2,0.3,0.4,0.3,0.6
			c0.1,0.7,0.4,1.4,0.9,2c0.7,1.3,1.7,2.3,2.9,3.2c0.5,0.5,1.1,0.9,1.7,1.2c0.6,0.3,1.4,0.6,2,0.9c1.4,0.6,2.9,0.9,4.4,0.9h2.6
			C206.6,227.4,201.4,231.4,195.6,234.6L195.6,234.6z M224,203.9c-1.2,3-2.8,5.8-4.6,8.4c-0.3,0.3-0.6,0.9-1.2,0.9
			c-0.6,0.1-1.2,0.3-1.7,0.6c-0.6,0.4-1.3,0.6-2,0.6h-2.3c-0.6,0-1.4-0.3-2-0.3c-0.9-0.3-1.7-0.3-2.3-0.6c-0.6,0-0.9,0-1.2-0.3
			c-0.6-0.3-0.9-0.3-1.2-0.6s-0.6-0.3-0.9-0.6s-0.6-0.3-0.9-0.6c-0.6,0-0.6-0.3-0.9-0.6c0,0-0.6-0.3-0.6-0.6
			c-0.3-0.3-0.3-0.6-0.6-0.9s-0.3-0.6-0.6-0.9c-0.3-0.6-0.3-1.2-0.6-1.7c-0.2-0.2-0.3-0.6-0.3-0.9c1.2-2.9,2.1-5.9,2.6-9
			c0.5-3.2,0.7-6.4,0.6-9.6c0.2,0.4,0.5,0.8,0.9,1.2c2.3,2.2,5.1,3.8,8.1,4.6c3.5,0.9,7.2,0.9,10.7,0c2-0.7,3.9-1.8,5.5-3.2
			C227.6,194.8,226,199.4,224,203.9z M230.4,173.8c-0.3,0.9-0.6,2-0.9,2.9c-0.4,1-0.9,2-1.5,2.9c-0.4,0.9-1,1.7-1.7,2.3
			s-1.5,1.2-2.3,1.7c-1.2,0.3-2,0.9-3.2,1.1c-4.3,1.4-9.8,0.9-13.6-0.3c-0.9-0.3-1.8-0.7-2.6-1.1c-0.6-0.6-1.1-0.9-1.7-1.4v-0.3
			c-0.8-4.9-2.4-9.7-4.6-14.2l-2.6-4.4c3.2,1.4,7.8,1.4,11.9,0c4.2-1.6,7.9-4.3,10.7-7.8s4.6-7.7,5.2-12.2c0.2-0.7,0.3-1.5,0.3-2.3
			c2.3,5.4,4.1,11,5.2,16.8c1,5.1,1.6,10.2,1.8,15.4C230.4,173.2,230.3,173.5,230.4,173.8L230.4,173.8z"/>
	</g>
</g>
</svg>
