<?xml version="1.0" encoding="utf-8"?>
<!-- Generator: Adobe Illustrator 24.2.1, SVG Export Plug-In . SVG Version: 6.00 Build 0)  -->
<svg version="1.1" id="Layer_1" xmlns="http://www.w3.org/2000/svg" xmlns:xlink="http://www.w3.org/1999/xlink" x="0px" y="0px"
	 viewBox="0 0 302 302" style="enable-background:new 0 0 302 302;" xml:space="preserve">
<style type="text/css">
	.st0{fill:#F47825;}
</style>
<g id="Layer_2_1_">
	<g id="Layer_1-2">
		<path class="st0" d="M132.1,170.6c-1.7,1.7-1.7,4.5,0,6.2s4.5,1.7,6.2,0c2.3-2.3,2.3-4.6,0-6.9c-1.7-1.5-4.2-1.4-5.8,0.2
			C132.3,170.3,132.2,170.4,132.1,170.6z"/>
		<path class="st0" d="M170.6,169.9c-1.7-1.7-4.4-1.8-6.2-0.1c-1.7,1.7-1.8,4.4-0.1,6.2l0.1,0.1c1.5,2.3,4.6,1.5,6.2,0
			c1.7-1,2.2-3.3,1.2-5C171.5,170.6,171.1,170.2,170.6,169.9z"/>
		<path class="st0" d="M151,0C67.6,0,0,67.6,0,151s67.6,151,151,151s151-67.6,151-151S234.4,0,151,0z M245.4,189.9
			c-26.2,31.6-67.1,6.2-67.1,6.2c12.3,19.3,40.1,30.8,40.1,30.8c10,11.6-4.6,16.2-4.6,16.2c-38.5-14.6-53.2-43.9-53.2-43.9v57
			c-9.3,13.1-17.7-0.8-17.7-0.8l-0.8-56.3c-16.9,31.6-52.4,44.7-52.4,44.7c-16.2-4.6-3.8-16.2-3.8-16.2
			c23.1-8.5,38.5-30.8,38.5-30.8c-45.5,25.4-66.3-4.6-66.3-4.6c-6.9-13.9,10-12.3,10-12.3c23.1,25.4,54.7-3.1,54.7-3.1l0.8-9.3
			l-8.5-0.8c-61.7-23,27.7-131.7,35.5-126.3c19.3,12.3,98.7,114.8,34.7,125.6l-6.2,1.5v7.7c37.8,29.3,54,3.1,54,3.1
			C248.4,174.5,245.4,189.9,245.4,189.9z"/>
	</g>
</g>
</svg>
