<?xml version="1.0" encoding="utf-8"?>
<!-- Generator: Adobe Illustrator 25.2.3, SVG Export Plug-In . SVG Version: 6.00 Build 0)  -->
<svg version="1.1"
	 id="svg2" inkscape:version="0.91 r13725" sodipodi:docname="logo.svg" xmlns:cc="http://creativecommons.org/ns#" xmlns:dc="http://purl.org/dc/elements/1.1/" xmlns:inkscape="http://www.inkscape.org/namespaces/inkscape" xmlns:rdf="http://www.w3.org/1999/02/22-rdf-syntax-ns#" xmlns:sodipodi="http://sodipodi.sourceforge.net/DTD/sodipodi-0.dtd" xmlns:svg="http://www.w3.org/2000/svg"
	 xmlns="http://www.w3.org/2000/svg" xmlns:xlink="http://www.w3.org/1999/xlink" x="0px" y="0px" viewBox="0 0 198 198"
	 style="enable-background:new 0 0 198 198;" xml:space="preserve">
<style type="text/css">
	.st0{display:none;fill:#3B3B3B;}
	.st1{fill:#F47825;}
	.st2{font-family:'MavenPro-SemiBold';}
	.st3{font-size:180px;}
</style>
<path class="st0" d="M178,198H20c-11,0-20-9-20-20V20C0,9,9,0,20,0h158c11,0,20,9,20,20v158C198,189,189,198,178,198z"/>
<sodipodi:namedview  bordercolor="#666666" borderopacity="1.0" fit-margin-bottom="0" fit-margin-left="0" fit-margin-right="0" fit-margin-top="0" id="base" inkscape:current-layer="layer1" inkscape:cx="529.60381" inkscape:cy="83.879223" inkscape:document-units="px" inkscape:pageopacity="0.0" inkscape:pageshadow="2" inkscape:window-height="1053" inkscape:window-maximized="1" inkscape:window-width="1858" inkscape:window-x="-8" inkscape:window-y="-8" inkscape:zoom="1" pagecolor="#ffffff" showgrid="false">
	</sodipodi:namedview>
<g>
	<g id="layer1" transform="translate(-289.50849,319.17136)" inkscape:groupmode="layer" inkscape:label="Calque 1">
		<g id="g4406" transform="matrix(0.4419355,0,0,0.4419355,-115.1012,-96.127872)">
			<path id="path4379" inkscape:connector-curvature="0" class="st1" d="M1118-59.6c-7.5-0.7-27.3-4.2-34.7-6
				c-63.5-16.2-117.3-59.7-145.7-117.8c-15.6-31.9-22.1-60.4-22.1-96.7c0-36.4,6.6-65.6,22-96.7c11.5-23.5,24.7-41.8,43.5-60.3
				c35.1-34.7,79.6-56.2,129.9-62.9c16.5-2.1,51.3-1.5,66.7,1.4c32,5.8,60.7,17.2,86.4,34.4c53.5,35.7,88.2,90.1,97.2,152.7
				c1.9,13.4,3.1,41.2,1.7,43.6c-0.7,1.3-1.1-0.1-1.5-5.6c-2.4-27.3-14.1-60.3-30.4-85c-49.5-75.1-141.9-106.9-227.5-78.4
				c-66.1,22-115.7,77.9-129.3,145.5c-6.7,33.4-4.7,66.2,6.1,98.5c19.1,57.1,64.6,102.6,122.3,122.4c13.6,4.7,31.2,8.6,42.6,9.5
				c13.8,1.1,10.3,2.1-6.7,2C1129.3-59.2,1120-59.4,1118-59.6L1118-59.6z"/>
		</g>
	</g>
	<text transform="matrix(1 0 0 1 52.2521 182.7595)" class="st1 st2 st3">Y</text>
</g>
</svg>
