<svg id="Capa_1" enable-background="new 0 0 512 512" height="512" viewBox="0 0 512 512" width="512" xmlns="http://www.w3.org/2000/svg"><g><g><path d="m477.774 257.496c0-10.426-5.01-19.681-12.753-25.492 7.743-5.811 12.753-15.066 12.753-25.492 0-17.592-14.261-31.852-31.852-31.852-9.105 0-17.311 3.826-23.116 9.951h-333.611c-5.805-6.125-14.011-9.951-23.116-9.951-17.592 0-31.852 14.261-31.852 31.852 0 10.426 5.01 19.681 12.753 25.492-7.743 5.811-12.753 15.066-12.753 25.492 0 10.921 5.498 20.554 13.875 26.293-8.391 5.937-13.875 15.712-13.875 26.773 0 9.838 4.339 18.657 11.201 24.666-6.862 6.009-11.201 14.828-11.201 24.666s4.339 18.657 11.201 24.666c-6.862 6.009-11.201 14.828-11.201 24.666 0 12.363 6.846 23.124 16.952 28.709 3.141 14.829 16.302 25.958 32.067 25.958 9.838 0 18.657-4.339 24.666-11.201 6.009 6.862 14.828 11.201 24.666 11.201s18.657-4.339 24.666-11.201c6.009 6.862 14.828 11.201 24.666 11.201s18.657-4.339 24.666-11.201c6.009 6.862 14.828 11.201 24.666 11.201s18.657-4.339 24.666-11.201c6.009 6.862 14.828 11.201 24.666 11.201s18.657-4.339 24.666-11.201c6.009 6.862 14.828 11.201 24.666 11.201s18.657-4.339 24.666-11.201c6.009 6.862 14.828 11.201 24.666 11.201s18.657-4.339 24.666-11.201c6.009 6.862 14.828 11.201 24.666 11.201 15.721 0 28.85-11.067 32.039-25.834 10.226-5.55 17.169-16.38 17.169-28.832 0-9.838-4.339-18.657-11.201-24.666 6.862-6.009 11.201-14.828 11.201-24.666s-4.339-18.657-11.201-24.666c6.862-6.009 11.201-14.828 11.201-24.666 0-11.061-5.484-20.835-13.875-26.773 8.372-5.74 13.871-15.373 13.871-26.294z" fill="#f7f7f7"/></g><g><g><path d="m445.921 174.66c-9.105 0-17.311 3.826-23.116 9.951h46.232c-5.805-6.125-14.011-9.951-23.116-9.951z" fill="#ffe0b7"/></g><g><path d="m129.481 437.934c-10.105-5.585-16.952-16.345-16.952-28.709 0-9.838 4.339-18.657 11.201-24.666-6.862-6.009-11.201-14.828-11.201-24.666s4.339-18.657 11.201-24.666c-6.862-6.009-11.201-14.828-11.201-24.666 0-11.061 5.484-20.835 13.875-26.773-8.377-5.739-13.875-15.372-13.875-26.293 0-10.426 5.01-19.681 12.753-25.492-7.743-5.811-12.753-15.066-12.753-25.492 0-8.487 3.325-16.192 8.736-21.901h-32.07c-5.805-6.125-14.011-9.951-23.116-9.951-17.592 0-31.852 14.261-31.852 31.852 0 10.426 5.01 19.681 12.753 25.492-7.743 5.811-12.753 15.066-12.753 25.492 0 10.921 5.498 20.554 13.875 26.293-8.391 5.937-13.875 15.712-13.875 26.773 0 9.838 4.339 18.657 11.201 24.666-6.862 6.009-11.201 14.828-11.201 24.666s4.339 18.657 11.201 24.666c-6.862 6.009-11.201 14.828-11.201 24.666 0 12.363 6.846 23.124 16.952 28.709 3.141 14.829 16.302 25.958 32.067 25.958 9.838 0 18.657-4.339 24.666-11.201 6.009 6.862 14.828 11.201 24.666 11.201 5.2 0 10.11-1.222 14.477-3.379-8.867-4.38-15.47-12.647-17.574-22.579z" fill="#eaeaea"/></g></g><g><g><path d="m205.337 357.187c0 13.301-13.541 24.085-30.243 24.085-16.704 0-30.244-10.784-30.244-24.085s13.54-24.085 30.244-24.085c16.701 0 30.243 10.784 30.243 24.085" fill="#ffa1ac"/></g><g><path d="m308.783 357.187c0 13.301 13.541 24.085 30.243 24.085 16.705 0 30.245-10.784 30.245-24.085s-13.54-24.085-30.245-24.085c-16.703 0-30.243 10.784-30.243 24.085" fill="#ffa1ac"/></g><g><path d="m192.719 341.502c-4.142 0-7.5-3.358-7.5-7.5v-12.363c0-4.142 3.358-7.5 7.5-7.5s7.5 3.358 7.5 7.5v12.363c0 4.142-3.358 7.5-7.5 7.5z" fill="#495560"/></g><g><path d="m321.4 341.502c-4.143 0-7.5-3.358-7.5-7.5v-12.363c0-4.142 3.357-7.5 7.5-7.5s7.5 3.358 7.5 7.5v12.363c0 4.142-3.357 7.5-7.5 7.5z" fill="#495560"/></g><g><path d="m257.06 348.861c-8.67 0-16.914-3.754-22.618-10.3-2.721-3.123-2.395-7.861.728-10.582 3.123-2.72 7.86-2.396 10.582.728 2.854 3.276 6.976 5.155 11.308 5.155s8.453-1.879 11.309-5.155c2.723-3.123 7.46-3.448 10.582-.726 3.123 2.721 3.447 7.459.727 10.582-5.706 6.544-13.95 10.298-22.618 10.298z" fill="#495560"/></g></g><g><path d="m256 48.109c-105.614-.293-195.885 55.297-242.741 115.352-29.38 37.834-5.867 104.788 30.856 96.413 140.492-30.877 283.278-30.877 423.77 0 36.723 8.373 60.235-58.579 30.856-96.413-46.856-60.052-137.127-115.647-242.741-115.352z" fill="#ff9b87"/></g><g><g><path d="m187.678 55.748c-75.54 17.194-138.056 61.105-174.419 107.712-29.38 37.834-5.867 104.788 30.856 96.413 80.345-17.658 161.441-25.199 242.428-22.66-100.901-7.558-145.105-98.28-98.865-181.465z" fill="#ff8870"/></g><g><path d="m300.296 237.744v-.009c-.087 0-.173-.003-.26-.004.087.004.173.009.26.013z" fill="#ff6e02"/></g></g><g><path d="m143.485 69.287c-.001.002-.002.004-.002.007-51.752 70.641-73.037 120.68-93.296 189.273 0 0 .017.006.029.009 121-25.811 243.65-28.762 365.025-8.809-4.701-58.135 5.396-108.764 17.829-146.685-.004-.002-.007-.005-.01-.007-47.735-32.291-109.232-55.155-177.06-54.966-40.253-.112-78.273 7.901-112.515 21.178z" fill="#ff8870"/></g><g><path d="m187.668 55.767c-15.295 3.484-30.064 8.045-44.183 13.519-.001.002-.002.004-.002.007-51.752 70.641-73.037 120.68-93.296 189.273 0 0 .017.006.029.009 78.362-16.716 157.416-23.831 236.368-21.359-100.922-7.536-145.145-98.258-98.916-181.449z" fill="#ff6c52"/></g><g><path d="m256 48.109c-4.36-.012-8.691.08-12.996.255-25.663 54.406-49.382 118.679-65.032 191.489 40.741-3.264 81.553-3.974 122.324-2.119 2.344-70.891 19.855-131.663 39.252-178.115-26.278-7.388-54.324-11.591-83.548-11.51z" fill="#ff6c52"/></g><g><path d="m190.623 188.705c-4.626 16.545-8.878 33.592-12.652 51.148 36.131-2.895 72.316-3.776 108.48-2.645-43.258-3.264-76.093-21.809-95.828-48.503z" fill="#ff583e"/></g></g></svg>