<?xml version="1.0" encoding="iso-8859-1"?>
<!-- Generator: Adobe Illustrator 19.0.0, SVG Export Plug-In . SVG Version: 6.00 Build 0)  -->
<svg version="1.1" id="Layer_1" xmlns="http://www.w3.org/2000/svg" xmlns:xlink="http://www.w3.org/1999/xlink" x="0px" y="0px"
	 viewBox="0 0 512.001 512.001" style="enable-background:new 0 0 512.001 512.001;" xml:space="preserve">
<path style="fill:#EEEEEF;" d="M53.684,216.634v103.979c0,46.47,37.806,84.276,84.276,84.276h236.064
	c46.47,0,84.276-37.806,84.276-84.276V216.634H53.684z"/>
<path style="fill:#DEDDE0;" d="M255.992,216.634v188.255h118.033c46.47,0,84.276-37.806,84.276-84.276V216.634H255.992z"/>
<path style="fill:#FFD6A0;" d="M508.586,233.066c-3.529-10.232-9.661-20.398-18.747-31.081
	c-14.231-16.73-32.532-30.647-39.74-35.854c-52.684-38.058-121.618-59.018-194.106-59.018c-72.485,0-141.42,20.96-194.105,59.018
	c-7.178,5.186-25.41,19.054-39.669,35.813c-9.088,10.682-15.228,20.843-18.77,31.065c-5.952,17.179-4.155,34.378,5.06,48.428
	c4.635,7.068,13.509,16.565,29.462,21.677c7.993,2.562,16.931,3.807,27.326,3.807c15.965,0,32.296-2.986,44.22-5.166
	c3.382-0.619,6.578-1.202,8.671-1.506c41.977-6.08,90.707-12.566,137.805-12.566c47.104,0,95.83,6.486,137.805,12.566
	c2.188,0.317,5.475,0.92,8.953,1.559c11.887,2.181,28.168,5.168,44.012,5.168c10.392,0,19.334-1.257,27.338-3.845
	c12.563-4.061,22.716-11.555,29.362-21.671C512.687,267.416,514.506,250.231,508.586,233.066z"/>
<path style="fill:#FFC170;" d="M508.586,233.066c-3.529-10.232-9.661-20.398-18.747-31.081
	c-14.231-16.73-32.532-30.647-39.74-35.854c-52.684-38.058-121.618-59.018-194.106-59.018h-0.001v180.569h0.001
	c47.104,0,95.83,6.486,137.805,12.566c2.188,0.317,5.475,0.92,8.953,1.559c11.887,2.181,28.168,5.168,44.012,5.168
	c10.392,0,19.334-1.257,27.338-3.845c12.563-4.061,22.716-11.555,29.362-21.671C512.687,267.416,514.506,250.231,508.586,233.066z"
	/>
<path style="fill:#FFAD41;" d="M272.847,107.508v180.444c22.269,0.679,44.666,2.611,66.342,5.079l45.118-162.426
	C349.879,117.174,312.038,109.275,272.847,107.508z"/>
<g>
	<path style="fill:#FFC170;" d="M127.677,130.607l45.118,162.425c21.677-2.468,44.074-4.4,66.342-5.08V107.508
		C199.947,109.275,162.105,117.175,127.677,130.607z"/>
	<path style="fill:#FFC170;" d="M61.888,166.132c-7.178,5.186-25.41,19.054-39.669,35.813c-9.088,10.682-15.228,20.843-18.77,31.065
		c-5.952,17.179-4.155,34.378,5.06,48.428c4.635,7.068,13.509,16.565,29.462,21.677c7.993,2.562,16.931,3.807,27.326,3.807
		c15.965,0,32.296-2.986,44.22-5.166c3.382-0.619,6.578-1.202,8.671-1.506c6.767-0.98,13.725-1.969,20.807-2.941L96.614,144.73
		C84.419,151.112,72.8,158.248,61.888,166.132z"/>
</g>
<path style="fill:#FFAD41;" d="M508.586,233.066c-3.529-10.232-9.661-20.398-18.747-31.081
	c-14.231-16.73-32.532-30.647-39.74-35.854c-10.913-7.884-22.533-15.021-34.727-21.403l-42.383,152.579
	c7.084,0.972,14.043,1.961,20.809,2.942c2.188,0.317,5.475,0.92,8.953,1.559c11.887,2.181,28.168,5.168,44.012,5.168
	c10.392,0,19.334-1.257,27.338-3.845c12.563-4.061,22.716-11.555,29.362-21.671C512.687,267.416,514.506,250.231,508.586,233.066z"
	/>
<g>
</g>
<g>
</g>
<g>
</g>
<g>
</g>
<g>
</g>
<g>
</g>
<g>
</g>
<g>
</g>
<g>
</g>
<g>
</g>
<g>
</g>
<g>
</g>
<g>
</g>
<g>
</g>
<g>
</g>
</svg>
