<svg xmlns="http://www.w3.org/2000/svg" xmlns:xlink="http://www.w3.org/1999/xlink" version="1.1" x="0px" y="0px" viewBox="0 0 100 125" enable-background="new 0 0 100 100" xml:space="preserve"><g><rect x="-468" width="185" height="99"/><rect x="-276" y="-36" width="100" height="30"/><text transform="matrix(1 0 0 1 -210 -19.5)" fill="#000000" font-family="'Helvetica'" font-size="2.4">http://thenounproject.com</text><text transform="matrix(1 0 0 1 -268.834 -24.5)"><tspan x="0" y="0" fill="#000000" font-family="'Helvetica-Bold'" font-size="6.1578">The Noun Project</tspan><tspan x="1.12" y="4.8" fill="#000000" font-family="'Helvetica-Bold'" font-size="4">Icon Template</tspan></text><text transform="matrix(1 0 0 1 -454.5 10.5)" fill="#000000" font-family="'Helvetica-Bold'" font-size="6.1578">Reminders</text><line fill="#000000" stroke="#FFFFFF" stroke-miterlimit="10" x1="-268" y1="-14.5" x2="-258" y2="-14.5"/><line fill="#000000" stroke="#FFFFFF" stroke-miterlimit="10" x1="-455" y1="16.5" x2="-438" y2="16.5"/><g><g><g><rect x="-446.802" y="31.318" fill="#000000" width="8.721" height="8.642"/><path fill="#000000" d="M-440.455,42.312h4.747v-4.703h-4.747V42.312z M-435.266,42.749h-5.63V37.17h5.63V42.749      L-435.266,42.749z M-442.221,44.062h8.279v-8.203h-8.279V44.062L-442.221,44.062z M-433.5,44.5h-9.163v-9.079h9.163V44.5      L-433.5,44.5z"/><polygon fill="#000000" points="-442.149,44.133 -442.292,43.991 -434.013,35.787 -433.871,35.929     "/></g></g></g><rect x="-455" y="58" fill="none" width="35" height="32.5"/><text transform="matrix(1 0 0 1 -455 60.1572)"><tspan x="0" y="0" fill="#000000" font-family="'Helvetica-Bold'" font-size="3">Strokes</tspan><tspan x="0" y="5" fill="#000000" font-family="'Helvetica'" font-size="2.4">Try to keep strokes at 4px</tspan><tspan x="0" y="10" fill="#000000" font-family="'Helvetica'" font-size="2.4">Minimum stroke weight is 2px</tspan><tspan x="0" y="14.5" fill="#000000" font-family="'Helvetica'" font-size="2.4">For thicker strokes use even </tspan><tspan x="0" y="17.5" fill="#000000" font-family="'Helvetica'" font-size="2.4">numbers: 6px, 8px etc.</tspan><tspan x="0" y="22" fill="#000000" font-family="'Helvetica-Bold'" font-size="2.4">Remember to expand strokes </tspan><tspan x="0" y="25" fill="#000000" font-family="'Helvetica-Bold'" font-size="2.4">before saving as an SVG </tspan></text><rect x="-412.5" y="58" fill="none" width="35" height="32.5"/><text transform="matrix(1 0 0 1 -412.5 60.1572)"><tspan x="0" y="0" fill="#000000" font-family="'Helvetica-Bold'" font-size="3">Size</tspan><tspan x="0" y="5" fill="#000000" font-family="'Helvetica'" font-size="2.4">Cannot be wider or taller than </tspan><tspan x="0" y="8.5" fill="#000000" font-family="'Helvetica'" font-size="2.4">100px (artboard size)</tspan><tspan x="0" y="13.5" fill="#000000" font-family="'Helvetica'" font-size="2.4">Scale your icon to fill as much of </tspan><tspan x="0" y="16.5" fill="#000000" font-family="'Helvetica'" font-size="2.4">the artboard as possible</tspan></text><rect x="-370" y="58" fill="none" width="35" height="32.5"/><text transform="matrix(1 0 0 1 -370 60.1572)"><tspan x="0" y="0" fill="#000000" font-family="'Helvetica-Bold'" font-size="3">Ungroup</tspan><tspan x="0" y="5" fill="#000000" font-family="'Helvetica'" font-size="2.4">If your design has more than one </tspan><tspan x="0" y="8" fill="#000000" font-family="'Helvetica'" font-size="2.4">shape, make sure to ungroup</tspan></text><rect x="-326" y="58" fill="none" width="35" height="32.5"/><text transform="matrix(1 0 0 1 -326 60.1572)"><tspan x="0" y="0" fill="#000000" font-family="'Helvetica-Bold'" font-size="3">Save as</tspan><tspan x="0" y="5" fill="#000000" font-family="'Helvetica'" font-size="2.4">Save as .SVG and make sure </tspan><tspan x="0" y="8" fill="#000000" font-family="'Helvetica'" font-size="2.4">“Use Artboards” is checked</tspan></text><text transform="matrix(1.0074 0 0 1 -401.542 30.5933)" fill="#000000" font-family="'Helvetica'" font-size="2.5731">100px</text><text transform="matrix(1.0074 0 0 1 -317 39)" fill="#000000" font-family="'Helvetica-Bold'" font-size="5.1462">.SVG</text><rect x="-402.514" y="34.815" fill="#000000" width="10.261" height="10.185"/><rect x="-402.477" y="31.766" fill="#000000" width="0.522" height="2.337"/><rect x="-392.812" y="31.766" fill="#000000" width="0.523" height="2.337"/><rect x="-403" y="32.337" fill="#000000" width="11.233" height="0.572"/><g><rect x="-359.805" y="33.844" fill="#000000" width="10.305" height="10.156"/><rect x="-352.809" y="28.707" fill="#000000" width="3.308" height="3.261"/></g><rect x="-454.5" y="22.5" fill="#000000" stroke="#FFFFFF" stroke-miterlimit="10" width="30" height="30"/><rect x="-412.5" y="22.5" fill="#000000" stroke="#FFFFFF" stroke-miterlimit="10" width="30" height="30"/><rect x="-369.5" y="22.5" fill="#000000" stroke="#FFFFFF" stroke-miterlimit="10" width="30" height="30"/><rect x="-325.5" y="22.5" fill="#000000" stroke="#FFFFFF" stroke-miterlimit="10" width="30" height="30"/></g><g><path fill="none" d="M13.316,55.817c0.034,0.193,0.796,4.342,4.689,5.362c1.101,0.104,13.197,1.278,23.197,3.342   c0.577,0.137,13.51,3.22,18.373,5.4c0.066,0.028,8.467,3.57,14.406,3.57c2.13,0,3.627-0.45,4.452-1.339l0.227-0.182   c0.021-0.016,4.227-2.982,6.04-19.28L80.125,53L16.25,43.333l-1.583-1.416l-1.459,0.012C12.905,43.68,12.113,49.396,13.316,55.817z   "/><path d="M215.833-30.833c-1.743,5.359-3.157,5.795-3.172,5.805l-0.227,0.182c-0.825,0.889-2.322,1.339-4.452,1.339   c-5.939,0-14.34-3.542-14.406-3.57c-4.863-2.181-17.796-5.264-18.373-5.4c-10-2.063-22.097-3.237-23.197-3.342   c-3.894-1.021-4.655-5.169-4.689-5.362c-0.745-3.978-0.726-7.685-0.53-10.346l-2.026,0.163c-0.184,2.756-0.17,6.487,0.588,10.53   c0.038,0.23,1.001,5.662,6.244,6.973l0.15,0.025c0.126,0.012,12.734,1.188,23.027,3.311c0.133,0.031,13.296,3.17,18.006,5.281   c0.358,0.152,8.857,3.737,15.207,3.737c2.645,0,4.605-0.634,5.83-1.886c0.624-0.437,2.676-2.269,4.508-8.278"/><path d="M94.275,57.816c0,0-9.417-26.448-42.12-35.223c0,0-31.583-10.819-48.961,18.029c0,0-3.701,5.535,1.433,4.211   c0,0,2.113-1.137,6.417-2.011c-0.357,2.611-0.762,7.664,0.304,13.342c0.038,0.23,1.001,5.662,6.244,6.973l0.15,0.025   c0.126,0.012,12.734,1.188,23.027,3.311c0.133,0.031,13.296,3.17,18.006,5.281c0.358,0.152,8.857,3.737,15.207,3.737   c2.645,0,4.605-0.634,5.83-1.886c0.474-0.331,1.768-1.47,3.165-4.619c3.558,0.62,7.238,0.589,10.755-0.591   c0,0,3.929-0.96,5.759-1.051C99.491,67.346,96.54,63.362,94.275,57.816z M87.125,48.5l3.25,4.5c0,0-12.652-11.337-32.868-2.687   C57.507,50.313,69.625,39.625,87.125,48.5z M81.125,40.75c0,0-14.694-7.855-32.471,3.732c0,0,9.346-11.982,28.721-6.982   L81.125,40.75z M65.125,29.125l4.25,2.5c0,0-17.5-6-31.285,9.559C38.09,41.184,45.625,25.75,65.125,29.125z M50.75,23.625   l5.375,1.5c0,0-17.707-2.003-28.676,14.293C27.449,39.418,31,25,50.75,23.625z M36.375,21.625l5.75,0.5   c0,0-13.625,0.25-24.469,17.167C17.656,39.292,22.875,23.75,36.375,21.625z M19.125,26.375c0,0,4.667-2.103,5.125-2.125   c0,0-9.405,4.58-14.61,16.817C9.64,41.067,11,31.625,19.125,26.375z M78.661,71.972l-0.227,0.182   c-0.825,0.889-2.322,1.339-4.452,1.339c-5.939,0-14.34-3.542-14.406-3.57c-4.863-2.181-17.796-5.264-18.373-5.4   c-10-2.063-22.097-3.237-23.197-3.342c-3.894-1.021-4.655-5.169-4.689-5.362c-1.104-5.889-0.529-11.175-0.193-13.362   c3.252-0.501,7.439-0.803,12.618-0.505c0,0,16.695,0.547,36.317,16.854c0,0,8.686,7.27,18.891,9.758   C79.696,71.238,78.672,71.964,78.661,71.972z M64.575,57.15c0,0,12.675-5.9,28.175,2.6l2.375,4   C95.125,63.75,80.334,54.227,64.575,57.15z"/><g><g><path display="none" fill="#000000" d="M198.07,455.539c0.348-0.288,0-0.577,0-0.577     c-2.677-0.264-5.386-0.344-7.771-0.334c-2.386-0.01-5.094,0.07-7.772,0.334c0,0-0.346,0.289,0,0.577c0,0-0.738,6.124-0.578,8.726     c0,0,0.072,4.45,0.809,6.934c0,0,1.213,5.724,1.213,7.109c0,0,0.359,3.468-0.187,6.911c0,0-0.024,0.197,0.046,0.291     c0.307,0.417,1.582,1.532,6.428,1.529l0.001-0.002c4.748-0.013,6.204-1.113,6.51-1.527c0.068-0.094,0.043-0.291,0.043-0.291     c-0.461-5.64-0.186-6.911-0.186-6.911c0-1.386,1.214-7.109,1.214-7.109c0.65-2.541,0.811-6.934,0.811-6.934     C198.778,461.722,198.07,455.539,198.07,455.539z"/></g></g><g><path d="M-40.224,63.184c-1.334-1.789-5.698-6.312-5.698-6.312c-8.151-8.945-12.825-10.983-14.939-11.386    c-0.241-1.513-1.051-4.856-3.59-6.849c0,0-8.699-7.088-12.271-7.238c0,0-2.886-3.591-9.487-3.868c0,0-3.741-3.844-11.362-3.081    c0,0-8.214-3.164-12.238-0.298c0,0-5.127-1.842-9.813,1.321c0,0-6.331,1.035-9.476,6.214c0,0-8.94,6.345-6.235,16.758    c0,0,1.521,7.653,5.905,3.937c0,0,0.457-0.44,1.245-0.969c-0.049,2.14,0.066,4.717,0.582,7.468c0.032,0.2,0.866,4.906,5.411,6.042    l0.13,0.022c0.109,0.01,11.035,1.028,19.954,2.869c0.115,0.026,11.521,2.746,15.604,4.576c0.311,0.132,7.675,3.238,13.178,3.238    c2.291,0,3.991-0.549,5.052-1.634c0.784-0.55,4.167-3.637,5.804-16.604c7.954,10.468,20.308,13.192,20.308,13.192    c2.155,0.307,0.557-2.904,0.557-2.904c-0.474-1.646-7-8.858-7-8.858c2.436,1.403,8.015,7.927,8.015,7.927    C-37.805,67.514-40.224,63.184-40.224,63.184z M-82.275,37.128c0.831-4.302,4.268-3.506,4.268-3.506    c-3.541,1.693-1.367,5.002-1.367,5.002c-5.069,0.696-7.023,4.266-7.298,6.132l-0.325,0.004    C-87.849,39.866-82.275,37.128-82.275,37.128z M-93.762,34.777c0.929-6.574,5.879-5.92,5.879-5.92    c-4.536,2.194-2.617,7.018-2.617,7.018c-7.287,2.061-7.929,7.856-7.773,9.831h-0.025C-100.154,36.82-93.762,34.777-93.762,34.777z     M-104.262,31.433c-0.056-6.399,6-6.035,6-6.035c-5.365,1.292-3.363,6.978-3.363,6.978c-8.136,2.693-6.303,11.479-6.303,11.479    C-112.754,34.87-104.262,31.433-104.262,31.433z M-114.892,31.527c-0.203-5.429,4.27-6.108,4.27-6.108    c-3.586,2.776-1.253,6.081-1.253,6.081c-7.237,5.956-6.392,11.871-5.608,13.606l-0.132,0.002    C-122.693,38.113-114.892,31.527-114.892,31.527z M-123.842,32.993c-1.302-2.549,2.5-5.315,2.5-5.315    C-123.684,31.807-121,33-121,33c-6.159,4.62-5.088,12.15-5.088,12.15c-0.059-0.114-0.113-0.228-0.167-0.341    C-129.506,37.897-123.842,32.993-123.842,32.993z M-69.271,72.577l-0.196,0.158c-0.715,0.771-2.012,1.16-3.857,1.16    c-5.146,0-12.426-3.068-12.484-3.094c-4.214-1.89-15.421-4.562-15.921-4.68c-8.665-1.787-19.147-2.805-20.102-2.897    c-3.373-0.883-4.034-4.478-4.063-4.645c-0.573-3.059-0.623-5.926-0.509-8.145c0.771-0.339,1.654-0.625,2.618-0.745    c0,0,5.068,0.648,7.117-1.651c0,0,3.926,2.008,9.022-0.596c0,0,5.126,1.842,8.89,0.049c0,0,4.65,2.797,10.902,1.109    c0,0,9.057,6.345,21.295,4.041c0,0,0.383-0.156,0.905-0.409c0.518,1.059,1.086,2.053,1.687,2.999    C-65.498,69.922-69.252,72.565-69.271,72.577z"/></g><path fill-rule="evenodd" clip-rule="evenodd" d="M225.166,37.539c-27.514-15.128-47.379-18.028-58.572-18.028   c-6.964,0-10.573,1.124-10.573,1.124c-8.787,0.793-15,17.868-15,17.868c-0.028,0.147,0,0.498,0.058,0.498H141   c0.01,1,0.163,6.574,2.686,8.63c0.765,0.623,1.691,0.81,2.63,0.626c0.025-0.004,0.526-0.099,1.422-0.19   c-0.155,2.712-0.111,6.259,0.61,10.109c0.038,0.23,1.001,5.657,6.244,6.968l0.15,0.022c0.126,0.012,12.734,1.186,23.027,3.309   c0.133,0.031,13.296,3.17,18.006,5.281c0.358,0.152,8.857,3.736,15.207,3.736c2.645,0,4.605-0.634,5.83-1.886   c0.586-0.41,2.434-2.054,4.174-7.236c2.005-1.403,5.732-4.226,9.009-7.892l-0.03-0.026c2.697-2.429,4.147-5.206,4.147-5.206   C239.852,44.204,225.166,37.539,225.166,37.539z M156.2,22.626l0.212-0.021l0.196-0.06c0.034-0.01,3.48-1.035,9.985-1.035   c5.145,0,11.851,0.618,20.07,2.604L173.011,40.91c-5.463-1.084-11.478-1.89-18.07-2.24l-0.081-0.004l-0.08,0.002   c-0.014,0-0.748,0.02-1.865,0.02c-5.37,0-8.274-0.409-9.558-0.762C145.395,32.942,150.532,23.138,156.2,22.626z M145.976,46.243   c-0.405,0.077-0.719,0-1.025-0.25c-1.154-0.94-1.729-3.88-1.897-6.09c2.657,0.678,7.264,0.786,9.861,0.786   c1.161,0,1.92-0.021,1.92-0.021c6.066,0.322,11.642,1.039,16.74,2.009l-0.043,0.053l0.137,4.6   C157.82,44.493,146.527,46.159,145.976,46.243z M150.316,57.817c-0.709-3.786-0.724-7.315-0.555-9.942   c4.445-0.305,12.715-0.443,21.967,1.506l0.475,16.035c-8.305-1.375-16.312-2.152-17.197-2.236   C151.112,62.159,150.351,58.011,150.316,57.817z M215.661,73.972l-0.227,0.182c-0.825,0.889-2.322,1.339-4.452,1.339   c-5.939,0-14.34-3.542-14.406-3.57c-2.119-0.95-5.77-2.071-9.264-3.046l-0.192-13.854c5.573,2.449,12.013,5.583,16.809,8.812   c7.35,4.951,10.793,5.933,13.002,5.933c0.522,0,0.965-0.06,1.385-0.13C216.818,73.598,215.674,73.963,215.661,73.972z    M218.623,67.554l-0.098,0.019c-1.894,0.365-4.254,0.818-13.479-5.396c-5.202-3.504-12.136-6.837-17.956-9.361l-0.084-6.062   c16.314,5.627,24.53,13,24.53,13c3.74,3.118,7.084,4.263,9.98,4.263c0.753,0,1.466-0.099,2.157-0.238   C221.242,65.815,219.188,67.187,218.623,67.554z M232.34,54.32c-0.041,0.077-4.098,7.696-10.823,7.696   c-2.741,0-5.66-1.271-8.675-3.777c-0.746-0.663-8.984-7.759-24.776-13.262l12.92-16.445c6.986,2.598,14.729,6.091,23.217,10.758   l0.067,0.037l0.067,0.03c0.068,0.032,6.908,3.213,8.691,8.397C233.758,49.878,233.531,52.026,232.34,54.32z"/><g><path d="M325,97.857c0,0,1-0.003,0-0.004C325,97.854,325,97.857,325,97.857z"/><path d="M334.785,34.609c-2.165-3.684-1.016-11.242-1.016-11.242l1.062-6.59c0.499-0.098,1.001-0.18,1.504-0.3L337.897,11h2.167    l1.842-6.55l-3.677-0.458c0,0-4.582-1.753-12.775-1.753c-7.169,0-12.631,1.745-12.631,1.745l-3.53,0.468L311.135,11h2.167    l1.419,5.477c0.495,0.119,0.988,0.211,1.479,0.308l1.17,6.547c0,0,0.396,2.668,0.245,5.668H317.5c-0.025,1-0.5,1.075-0.5,1.571    c0,0.001,0,0.002,0,0.004c0,0.478,0.108,0.949,0.013,1.409c-0.006,0.023,0.112,0.047,0.107,0.071    c-0.095,0.435-0.153,0.852-0.29,1.251c-0.023,0.066-0.019,0.13-0.042,0.195c-0.147,0.394-0.296,0.771-0.494,1.108    c0,0-13.632,27.291-9.298,53.511c0,0,0.127,2.377,1.212,3.46c0,0,4.955,6.054,17.244,6.269c0.769-0.014,1.511-0.05,2.222-0.106    c10.682-0.842,15.123-6.162,15.123-6.162c1.084-1.083,1.202-3.46,1.202-3.46c0.437-2.64,0.684-5.29,0.789-7.924    C345.734,56.681,334.785,34.609,334.785,34.609z M319.34,23.062l-0.007-0.033l-0.007-0.032l-1.083-5.876    c3.983,0.577,7.211,0.499,7.211,0.499s3.307,0.079,7.322-0.496l-1.02,5.939c-0.073,0.486-0.446,3.183-0.287,6.182    c-2.021,0.23-4.11,0.353-6.263,0.353c-1.911,0-3.773-0.098-5.582-0.279C319.793,26.289,319.414,23.552,319.34,23.062z"/></g><g><path fill="#000000" d="M364.601-88.524c0,0-1.424-5.999-6.566-5.999l-0.316-6.965l8.436,0.039L364.601-88.524z"/><polygon fill="#000000" points="341.81,-97.789 341.81,-94.387 344.974,-95.414   "/><path fill="#000000" d="M360.3-96.074c7.492,5.475,11.346,32.362,3.85,43.801c-12.219,7.34-23.021-0.416-23.021-0.416    c-11.586-22.549,2.203-44.097,2.203-44.097S353.483-100.225,360.3-96.074z"/><g><g><g><path fill="#000000" d="M355.985-92.129c-0.156-0.047-0.312-0.092-0.471-0.137c-2.197-0.606-1.887-0.577-4.928-1.078       c0.521,0.304,0.514,0.312,6.229,4.603c0.76-0.876,1.186-2.306,1.42-3.531c0.242-1.259,0.283-2.301,0.283-2.301"/><g><g><g><g><path fill="#000000" d="M358.27-93.036l-0.032,0.187c0.01-0.031,0.022-0.061,0.039-0.09           C358.29-92.979,358.278-93.003,358.27-93.036z"/><polygon fill="#000000" points="358.206,-92.679 358.2,-92.646 358.201,-92.617          "/><path fill="#000000" d="M358.166-92.352c0.014-0.057,0.021-0.112,0.027-0.166C358.18-92.472,358.17-92.417,358.166-92.352z           "/><path fill="#000000" d="M358.229-92.607c-0.014,0.019-0.025,0.026-0.027-0.008v-0.002l-0.008,0.1           C358.203-92.552,358.215-92.582,358.229-92.607z"/><path fill="#000000" d="M358.229-92.607l0.034-0.056C358.251-92.647,358.239-92.629,358.229-92.607z"/><path fill="#000000" d="M358.448-92.482c0.002,0.034-0.063,0.014-0.061,0.081c-0.009,0.155-0.006,0.295-0.035,0.437           c0,0.068-0.094,0.156-0.095,0.223c-0.014,0.156-0.027,0.568,0.027,0.338c0.077-0.349,0.106-0.579,0.154-0.895l0.043-0.772           c0.007-0.073,0.021-0.141,0.035-0.209l-0.07,0.279C358.41-92.871,358.47-92.696,358.448-92.482z"/><path fill="#000000" d="M358.457-94.414l0.017,0.101c-0.06,0.143-0.054,0.297-0.05,0.452l0.04-0.064           c0.004-0.089-0.014-0.101-0.035-0.023c0.058-0.175,0.077-0.345,0.08-0.519C358.49-94.458,358.47-94.462,358.457-94.414z"/><polygon fill="#000000" points="358.509,-94.57 358.509,-94.468 358.516,-94.472 358.511,-94.573          "/><path fill="#000000" d="M358.082-91.657c-0.098,0.428-0.219,0.823-0.36,1.199c0.002,0.033,0.009,0.06-0.013,0.096           c-0.022,0.025-0.041,0.052-0.058,0.08l-0.067,0.161l-0.02,0.06v0.001c-0.006,0.033,0.007,0.028,0.024,0.014           c0.016-0.019,0.031-0.034,0.047-0.047l-0.047,0.047c-0.019,0.021-0.037,0.048-0.055,0.08           c-0.017,0.051-0.04,0.102-0.067,0.153c0.02-0.062,0.045-0.112,0.067-0.153l0.03-0.095l0.006-0.029           c-0.054,0.123-0.113,0.241-0.174,0.36l-0.032,0.077c-0.036,0.089-0.073,0.18-0.132,0.215l-0.037,0.061l0.012-0.009           l-0.019,0.02l-0.167,0.249l-0.086,0.184l-0.068,0.032c-0.004,0.031-0.021,0.069-0.045,0.107l0.14-0.081           c0.069-0.035,0.035-0.164,0.135-0.192c-0.1,0.028-0.065,0.157-0.135,0.192l-0.14,0.081l-0.025,0.038l0.033-0.004           c-0.073-0.049-0.147-0.121-0.198-0.194c0.098,0.044,0.161,0.11,0.21,0.179l-0.06,0.007l0.04-0.025           c0.024-0.038,0.041-0.076,0.045-0.107l0.068-0.032l0.086-0.184c-0.082,0.111-0.171,0.22-0.266,0.325l0.106-0.011           l-0.138-0.11l-3.082-2.398l-1.672-1.36c-0.4-0.327-0.791-0.646-1.244-0.911l-0.185,0.515           c0.826,0.146,1.649,0.285,2.481,0.567c0.508,0.157,1.458,0.387,1.97,0.525c0.705,0.078,0.431-0.298,0.403-0.321           c-0.351-0.349-0.7-0.316-1.52-0.677c0.562,0.228-0.464,0.038-0.987-0.229c-0.587-0.321-1.437-0.387-2.242-0.505           l-0.247,0.686c0.201,0.109,0.37,0.225,0.544,0.367c0.19,0.156,0.41,0.305,0.647,0.486c1.192,0.997,2.412,1.781,3.707,2.778           c0.348,0.26,0.689,0.438,1.001,0.63c0.116,0.08,0.229,0.172,0.335,0.261l0.21,0.176l0.198-0.219           c0.09-0.101,0.178-0.194,0.239-0.286c0.212-0.3,0.338-0.587,0.436-0.863c-0.131,0.3-0.227,0.522-0.433,0.837           c-0.142,0.205,0.034-0.19,0.096-0.338c0.021-0.066,0.14-0.123,0.16-0.191c0.07-0.133,0.105-0.269,0.153-0.421           c0.016-0.067,0.072-0.034,0.079-0.068c0.073-0.206,0.052-0.392,0.115-0.514l0.124-0.263           c0.021-0.055,0.043-0.108,0.058-0.167l0.018-0.116c-0.028,0.023-0.056,0.027-0.083,0.029l0.075-0.178l-0.075,0.178           c0.027-0.002,0.055-0.006,0.083-0.029l0.125-0.9l-0.007,0.003c-0.031,0.172-0.078,0.337-0.162,0.501           c0.033-0.072,0.049-0.058,0.03,0.03l-0.051,0.057c0.022-0.154,0.042-0.309,0.122-0.44l0.001-0.102           c0.02-0.046,0.04-0.039,0.06-0.046l0.017-0.102C358.176-91.869,358.082-91.656,358.082-91.657z"/><path fill="#000000" d="M357.53-89.965l0.028-0.079l-0.147,0.303C357.466-89.781,357.5-89.872,357.53-89.965z"/></g></g></g></g></g><g><path fill="#000000" d="M354.019-90.848c0.137-0.08,2.309-1.136,4.5-3.726"/><g><g><g><g><path fill="#000000" d="M358.132-94.271l-0.042,0.042c0.011-0.005,0.022-0.007,0.038-0.006           C358.142-94.24,358.135-94.255,358.132-94.271z"/><polygon fill="#000000" points="358.052,-94.191 358.044,-94.185 358.043,-94.174          "/><path fill="#000000" d="M357.995-94.105c0.016-0.011,0.025-0.024,0.033-0.04C358.015-94.138,358.003-94.125,357.995-94.105           z"/><path fill="#000000" d="M358.062-94.154c-0.012-0.002-0.021-0.007-0.021-0.02h0.001l-0.015,0.028           C358.039-94.15,358.051-94.153,358.062-94.154z"/><path fill="#000000" d="M358.062-94.154l0.03,0.003L358.062-94.154z"/><path fill="#000000" d="M358.221-93.975c-0.001,0.013-0.05-0.035-0.053-0.01c-0.019,0.049-0.024,0.1-0.055,0.133           c-0.003,0.025-0.08-0.002-0.083,0.023c-0.018,0.049-0.039,0.2,0.009,0.145c0.069-0.087,0.104-0.152,0.161-0.232           l0.098-0.233c0.013-0.02,0.031-0.031,0.049-0.045l-0.082,0.046C358.224-94.13,358.254-94.034,358.221-93.975z"/><path fill="#000000" d="M358.445-94.569l-0.002,0.038c-0.067,0.003-0.084,0.052-0.101,0.101l0.039,0.006           c0.015-0.023,0.003-0.038-0.024-0.029c0.067-0.016,0.106-0.052,0.137-0.097C358.479-94.561,358.463-94.574,358.445-94.569z           "/><rect x="358.489" y="-94.566" transform="matrix(0.519 -0.8548 0.8548 0.519 253.2802 260.959)" fill="#000000" width="0.032" height="0.007"/><path fill="#000000" d="M357.894-93.904c-0.092,0.1-0.182,0.191-0.274,0.274c0.003,0.017,0.009,0.031-0.006,0.035           c-0.016-0.001-0.027,0.001-0.038,0.004l-0.041,0.036l-0.01,0.018v0.001c-0.002,0.013,0.008,0.018,0.02,0.021l0.03,0.003           l-0.03-0.003c-0.013,0-0.024,0.002-0.034,0.007c-0.009,0.015-0.02,0.029-0.035,0.039c0.009-0.02,0.021-0.032,0.035-0.039           l0.015-0.028l0.002-0.011l-0.095,0.081l-0.015,0.022c-0.015,0.027-0.03,0.055-0.066,0.044l-0.018,0.015l0.008,0.001           l-0.011,0.001l-0.073,0.06c-0.006,0.023-0.01,0.049-0.019,0.07l-0.038-0.01c0.005,0.019,0.004,0.035-0.003,0.049           l0.073,0.008c0.039,0.01-0.013-0.081,0.05-0.053c-0.062-0.028-0.011,0.062-0.05,0.053l-0.073-0.008           c-0.013,0.029-0.049,0.047-0.094,0.044c0.008-0.047,0.051-0.049,0.094-0.044c0.007-0.014,0.008-0.03,0.003-0.049           l0.038,0.01c0.009-0.021,0.013-0.047,0.019-0.07l-0.146,0.116c-0.325,0.247-0.602,0.5-0.948,0.741           c-0.188,0.129-0.379,0.24-0.573,0.336c-0.386,0.189-0.657,0.484-1.108,0.563c-0.168,0.035-0.409,0.212-0.543,0.29           c-0.148,0.207,0.1,0.401,0.114,0.412c0.234,0.153,0.263-0.015,0.572-0.029c-0.202,0.023,0.038-0.204,0.276-0.155           c0.357,0.08,0.555-0.298,0.849-0.43c0.074-0.034,0.136-0.093,0.215-0.146c0.45-0.228,0.739-0.604,1.138-0.933           c0.103-0.092,0.148-0.221,0.21-0.323c0.053-0.065,0.141-0.104,0.19-0.15c0.077-0.075,0.126-0.157,0.169-0.24l-0.173,0.226           c-0.051,0.054-0.022-0.098-0.002-0.146c0.004-0.025,0.08,0.006,0.084-0.02c0.032-0.032,0.041-0.082,0.062-0.13           c0.004-0.025,0.05,0.024,0.052,0.012c0.036-0.058,0.011-0.155,0.053-0.172l0.085-0.042c0.015-0.01,0.029-0.021,0.04-0.036           l0.013-0.037c-0.021-0.008-0.042-0.022-0.062-0.038l0.058-0.027l-0.058,0.027c0.021,0.016,0.041,0.03,0.062,0.038           c0.031-0.091,0.075-0.187,0.116-0.274l-0.005-0.003c-0.031,0.044-0.072,0.078-0.141,0.091           c0.027-0.008,0.039,0.008,0.022,0.03l-0.039-0.008c0.02-0.048,0.039-0.096,0.105-0.096l0.004-0.038           c0.018-0.005,0.032,0.011,0.048,0.021l0.018-0.027C357.973-93.927,357.894-93.904,357.894-93.904z"/><path fill="#000000" d="M357.507-93.509l0.015-0.022l-0.08,0.067C357.478-93.454,357.492-93.481,357.507-93.509z"/></g></g></g></g></g></g><g><g><g><g><g><path fill="#000000" d="M364.184-85.628l-0.16-0.052c0.025,0.013,0.05,0.028,0.074,0.048          C364.13-85.614,364.153-85.623,364.184-85.628z"/><polygon fill="#000000" points="363.875,-85.729 363.847,-85.738 363.82,-85.739         "/><path fill="#000000" d="M363.589-85.796c0.049,0.018,0.097,0.03,0.145,0.04C363.694-85.773,363.646-85.787,363.589-85.796z"/><path fill="#000000" d="M363.809-85.714c-0.015-0.015-0.02-0.027,0.011-0.025h0.001l-0.087-0.017          C363.763-85.743,363.787-85.729,363.809-85.714z"/><path fill="#000000" d="M363.809-85.714l0.045,0.039C363.841-85.688,363.826-85.701,363.809-85.714z"/><path fill="#000000" d="M363.669-85.507c-0.03-0.002-0.004-0.064-0.064-0.066c-0.137-0.021-0.258-0.025-0.38-0.062          c-0.061-0.002-0.128-0.1-0.188-0.102c-0.137-0.02-0.499-0.031-0.299,0.022l0.771,0.186l0.671,0.115          c0.063,0.016,0.12,0.038,0.178,0.061l-0.232-0.103C364.015-85.509,363.852-85.469,363.669-85.507z"/><path fill="#000000" d="M365.356-85.223l-0.09-0.005c-0.11-0.085-0.248-0.108-0.385-0.131l0.049,0.051          c0.076,0.02,0.091,0.004,0.028-0.03c0.141,0.086,0.282,0.137,0.432,0.177C365.388-85.182,365.396-85.201,365.356-85.223z"/><polygon fill="#000000" points="365.479,-85.14 365.391,-85.161 365.393,-85.155 365.481,-85.138         "/><path fill="#000000" d="M362.976-85.914l-1.07-0.312c-0.03,0.005-0.053,0.015-0.086-0.003          c-0.024-0.019-0.05-0.033-0.075-0.046l-0.149-0.045l-0.056-0.01h-0.001c-0.03,0-0.024,0.013-0.01,0.026          c0.018,0.013,0.033,0.025,0.046,0.038l-0.046-0.038c-0.021-0.015-0.047-0.028-0.076-0.04          c-0.048-0.009-0.096-0.019-0.146-0.036c0.059,0.007,0.105,0.021,0.146,0.036l0.087,0.014l0.027,0.001l-0.344-0.102          l-0.073-0.015c-0.085-0.014-0.171-0.026-0.214-0.071l-0.062-0.018l0.01,0.009l-0.021-0.012l-0.26-0.076l-0.184-0.007          l-0.051-0.047c-0.027,0.01-0.064,0.013-0.105,0.008l0.117,0.087c0.051,0.047,0.147-0.033,0.201,0.047          c-0.054-0.08-0.15,0-0.201-0.047l-0.117-0.087c-0.086-0.009-0.19-0.047-0.269-0.1c0.113-0.001,0.198,0.048,0.269,0.1          c0.041,0.005,0.078,0.002,0.105-0.008l0.051,0.047l0.184,0.007l-0.518-0.146c-1.131-0.317-2.195-0.53-3.401-0.732          c-0.652-0.11-1.284-0.202-1.91-0.273c-1.253-0.138-2.396-0.006-3.688,0.066c-0.499,0.023-1.39,0.306-1.838,0.489          c-0.538,0.327-0.135,0.481-0.102,0.485c0.446,0.093,0.668-0.145,1.445-0.199c-0.526,0.048,0.338-0.259,0.853-0.17          c0.73,0.129,1.702-0.158,2.583-0.075l0.71,0.032c1.343,0.16,2.607,0.243,4.012,0.559c0.372,0.078,0.713,0.092,1.034,0.133          c0.231,0.043,0.468,0.137,0.653,0.182c0.291,0.075,0.548,0.116,0.795,0.152l-0.773-0.16c-0.2-0.047,0.16-0.048,0.298-0.032          c0.061,0,0.131,0.096,0.19,0.096c0.123,0.032,0.244,0.034,0.381,0.051c0.061,0,0.036,0.063,0.066,0.064          c0.184,0.032,0.345-0.011,0.455,0.038l0.234,0.098c0.048,0.017,0.095,0.034,0.146,0.046l0.102,0.012          c-0.02-0.027-0.022-0.055-0.024-0.081l0.156,0.067l-0.156-0.067c0.002,0.026,0.005,0.054,0.024,0.081          c0.247,0.028,0.529,0.074,0.791,0.12l-0.002-0.007c-0.149-0.036-0.293-0.085-0.435-0.169          c0.062,0.034,0.049,0.049-0.028,0.031l-0.049-0.049c0.138,0.02,0.274,0.04,0.386,0.123l0.091,0.003          c0.039,0.021,0.031,0.041,0.035,0.061l0.089,0.021C363.157-85.815,362.976-85.914,362.976-85.914z"/><path fill="#000000" d="M361.449-86.347l0.073,0.014l-0.287-0.086C361.277-86.374,361.363-86.36,361.449-86.347z"/></g></g></g></g></g><g><g><g><g><g><path fill="#000000" d="M363.965-59.212l-0.328,0.303l0.181-0.135C363.894-59.104,363.921-59.15,363.965-59.212z"/><polygon fill="#000000" points="363.323,-58.638 363.263,-58.587 363.215,-58.54         "/><path fill="#000000" d="M362.728-58.141c0.112-0.079,0.215-0.161,0.312-0.244L362.728-58.141z"/><path fill="#000000" d="M363.225-58.511c-0.044,0.023-0.067,0.029-0.012-0.027l0.002-0.002l-0.175,0.155L363.225-58.511z"/><path fill="#000000" d="M363.225-58.511l0.127-0.075L363.225-58.511z"/><path fill="#000000" d="M363.221-58.2c-0.057,0.054-0.084-0.01-0.199,0.1c-0.282,0.241-0.528,0.448-0.826,0.632          c-0.129,0.097-0.384,0.157-0.518,0.241c-0.311,0.206-1.198,0.615-0.661,0.413c0.797-0.33,1.265-0.645,1.873-1.1          c0.48-0.389,0.9-0.805,1.329-1.259l0.358-0.354l-0.501,0.46C363.833-58.86,363.606-58.531,363.221-58.2z"/><path fill="#000000" d="M366.166-61.668l-0.125,0.199c-0.252,0.246-0.466,0.543-0.688,0.835l0.13-0.103          c0.131-0.165,0.132-0.196,0.002-0.061c0.304-0.303,0.558-0.617,0.801-0.95C366.257-61.738,366.243-61.755,366.166-61.668z"/><polygon fill="#000000" points="366.428,-61.944 366.286,-61.747 366.297,-61.751 366.435,-61.95         "/><path fill="#000000" d="M361.349-57.235c-0.938,0.446-1.935,0.62-2.883,0.521c-0.073,0.006-0.127,0.016-0.224-0.005          l-0.219-0.057c-0.138-0.023-0.272-0.053-0.406-0.085l-0.145-0.03h-0.003c-0.078-0.012-0.059,0.003-0.015,0.024l0.137,0.06          l-0.137-0.06l-0.212-0.077c-0.123-0.032-0.25-0.069-0.379-0.118l0.379,0.118l0.229,0.053l0.068,0.011          c-0.309-0.079-0.608-0.178-0.904-0.293l-0.187-0.066c-0.215-0.076-0.43-0.161-0.544-0.251l-0.153-0.073l0.026,0.019          l-0.054-0.032l-0.637-0.334l-0.436-0.195l-0.125-0.109c-0.064-0.018-0.151-0.056-0.249-0.104l0.283,0.227          c0.125,0.109,0.348,0.118,0.487,0.264c-0.14-0.146-0.362-0.154-0.487-0.264l-0.283-0.227c-0.2-0.109-0.449-0.269-0.625-0.43          c0.257,0.142,0.459,0.285,0.625,0.43c0.098,0.049,0.185,0.087,0.249,0.104l0.125,0.109l0.436,0.195          c-0.411-0.226-0.82-0.47-1.228-0.729c-2.611-1.699-4.354-4.209-5.185-7.315c-0.45-1.686-0.627-3.366-0.668-5.01          c-0.068-3.279,0.132-6.286,0.623-9.59c0.188-1.267,0.39-3.645,0.448-4.891c-0.027-1.673-0.362-0.818-0.379-0.743          c-0.294,1.003-0.208,1.802-0.548,3.852c0.216-1.396,0.06,1.051-0.242,2.363c-0.444,1.897-0.492,4.671-0.562,7.07          c-0.02,0.601,0.001,1.239,0.03,1.959c0.048,1.866,0.295,3.681,0.843,5.448c0.547,1.762,1.412,3.484,2.731,4.999          c0.708,0.795,1.466,1.357,2.207,1.839c0.536,0.364,1.115,0.736,1.57,0.986c0.719,0.393,1.379,0.676,2.037,0.872          c-0.727-0.244-1.237-0.47-1.984-0.858c-0.493-0.267,0.381,0.117,0.726,0.257c0.148,0.057,0.344,0.231,0.497,0.28          c0.319,0.141,0.631,0.229,0.993,0.325c0.157,0.032,0.12,0.093,0.199,0.106c0.502,0.129,0.909,0.104,1.231,0.154          c0.247,0.033,0.473,0.05,0.693,0.054c0.14-0.001,0.278-0.007,0.424-0.024l0.276-0.055c-0.077-0.009-0.106-0.029-0.136-0.052          c0.133-0.014,0.323-0.031,0.457-0.059c-0.134,0.027-0.324,0.045-0.457,0.059c0.029,0.022,0.059,0.043,0.136,0.052          c0.666-0.14,1.388-0.442,1.994-0.814l-0.012-0.001c-0.36,0.205-0.738,0.369-1.158,0.463c0.18-0.045,0.165-0.02-0.036,0.051          l-0.167,0.016c0.352-0.121,0.683-0.271,1.018-0.381l0.201-0.127c0.107-0.046,0.112-0.024,0.143-0.021l0.211-0.126          L361.349-57.235z"/><path fill="#000000" d="M357.235-56.948l0.192,0.048c-0.257-0.07-0.509-0.155-0.757-0.251          C356.791-57.071,357.012-57.003,357.235-56.948z"/></g></g></g></g></g><g><g><g><g><g><path fill="#000000" d="M338.752-62.49l-0.003,0.182c0.005-0.031,0.012-0.062,0.023-0.092          C338.78-62.439,338.766-62.46,338.752-62.49z"/><polygon fill="#000000" points="338.755,-62.141 338.756,-62.108 338.763,-62.081         "/><path fill="#000000" d="M338.798-61.827c-0.002-0.056-0.011-0.108-0.021-0.16C338.777-61.941,338.783-61.888,338.798-61.827          z"/><path fill="#000000" d="M338.792-62.078c-0.01,0.02-0.02,0.029-0.028-0.002l-0.001-0.001l0.015,0.094          C338.779-62.021,338.784-62.052,338.792-62.078z"/><path fill="#000000" d="M338.792-62.078l0.021-0.061C338.805-62.121,338.798-62.102,338.792-62.078z"/><path fill="#000000" d="M339.033-62.019c0.01,0.029-0.058,0.028-0.036,0.087c0.032,0.141,0.077,0.256,0.101,0.386          c0.023,0.057-0.031,0.164-0.003,0.22c0.043,0.14,0.232,0.458,0.17,0.256c-0.091-0.302-0.146-0.503-0.189-0.786          c-0.056-0.228-0.095-0.452-0.118-0.694c-0.005-0.067,0.005-0.131,0.013-0.194c-0.016,0.082-0.028,0.168-0.036,0.263          C338.912-62.356,339.006-62.208,339.033-62.019z"/><path fill="#000000" d="M338.925-63.809l0.005,0.097c-0.077,0.128-0.073,0.279-0.077,0.426l0.043-0.06          c0.008-0.084-0.01-0.097-0.035-0.024c0.062-0.164,0.096-0.319,0.122-0.481C338.963-63.846,338.942-63.853,338.925-63.809z"/><polygon fill="#000000" points="338.995,-63.948 338.982,-63.852 338.989,-63.854 338.997,-63.951         "/><path fill="#000000" d="M338.97-61.181c0.098,0.403,0.229,0.773,0.395,1.119c0.025,0.021,0.048,0.031,0.06,0.069          c0.003,0.032,0.011,0.062,0.021,0.092l0.078,0.146l0.035,0.049l0.001,0.001c0.022,0.022,0.026,0.01,0.025-0.012          c-0.005-0.022-0.008-0.044-0.009-0.062l0.009,0.062c0.006,0.026,0.016,0.056,0.029,0.087c0.03,0.041,0.062,0.083,0.09,0.132          c-0.041-0.048-0.071-0.091-0.09-0.132l-0.056-0.076l-0.02-0.021c0.061,0.112,0.13,0.219,0.197,0.328l0.051,0.062          c0.062,0.068,0.122,0.138,0.133,0.202l0.041,0.055l-0.003-0.015l0.011,0.023c0.059,0.077,0.117,0.154,0.182,0.227          l0.157,0.115l0.022,0.069c0.03,0.007,0.064,0.025,0.099,0.053l-0.061-0.141c-0.021-0.067-0.147-0.059-0.151-0.157          c0.004,0.099,0.13,0.09,0.151,0.157l0.061,0.141c0.072,0.057,0.152,0.143,0.2,0.231c-0.105-0.06-0.163-0.146-0.2-0.231          c-0.034-0.027-0.068-0.046-0.099-0.053l-0.022-0.069l-0.157-0.115c0.121,0.146,0.253,0.286,0.394,0.422          c0.911,0.883,2.004,1.397,3.263,1.748c0.687,0.187,1.366,0.296,2.042,0.346c1.358,0.082,2.577-0.229,3.897-0.716          c0.521-0.184,1.325-0.828,1.662-1.258c0.358-0.601-0.104-0.503-0.129-0.492c-0.445,0.146-0.538,0.484-1.274,0.835          c0.494-0.25-0.236,0.389-0.788,0.44c-0.752,0.087-1.69,0.553-2.619,0.548c-0.227,0-0.466,0.021-0.737,0.014          c-1.385-0.117-2.716-0.315-3.98-1.065c-0.331-0.196-0.642-0.344-0.915-0.529c-0.191-0.145-0.352-0.349-0.481-0.49          c-0.206-0.222-0.383-0.415-0.546-0.608c0.167,0.227,0.306,0.379,0.523,0.603c0.145,0.151-0.165-0.045-0.267-0.146          c-0.05-0.037-0.052-0.155-0.098-0.194c-0.078-0.104-0.171-0.184-0.263-0.291c-0.046-0.042,0.015-0.072-0.007-0.094          c-0.111-0.152-0.257-0.243-0.296-0.361l-0.082-0.248l-0.056-0.147l-0.054-0.091c-0.009,0.032-0.028,0.051-0.049,0.069          c-0.017-0.049-0.027-0.122-0.039-0.173c0.012,0.051,0.022,0.124,0.039,0.173c0.021-0.019,0.04-0.037,0.049-0.069          c-0.123-0.224-0.243-0.497-0.323-0.764l-0.005,0.005c0.038,0.157,0.07,0.311,0.078,0.484          c-0.005-0.074,0.016-0.07,0.041,0.009l-0.013,0.07c-0.06-0.133-0.12-0.271-0.101-0.416l-0.042-0.086          c-0.001-0.047,0.021-0.049,0.036-0.062l-0.023-0.094C338.964-61.4,338.971-61.182,338.97-61.181z"/><path fill="#000000" d="M339.613-59.625l-0.045-0.065c0.05,0.095,0.11,0.183,0.165,0.274          C339.729-59.481,339.671-59.552,339.613-59.625z"/></g></g></g></g></g><g><path fill="#000000" d="M357.374-73.219c-1.193,1.893-2.773,5.952-3.041,8.219c1.576-1.363,3.68-3.105,4.754-5.102      c0.887-1.53,0.217-5.631-1.592-3.016"/><g><g><g><g><path fill="#000000" d="M358.837-73.772c0.05,0.035,0.09,0.088,0.13,0.139l-0.046-0.091          C358.898-73.763,358.869-73.765,358.837-73.772z"/><polygon fill="#000000" points="359.062,-73.477 359.079,-73.445 359.099,-73.421         "/><path fill="#000000" d="M359.218-73.154c-0.02-0.061-0.038-0.12-0.067-0.172C359.168-73.277,359.185-73.218,359.218-73.154z          "/><path fill="#000000" d="M359.126-73.428c0,0.024-0.005,0.038-0.026,0.008l-0.001-0.001l0.052,0.095          C359.139-73.362,359.131-73.396,359.126-73.428z"/><path fill="#000000" d="M359.126-73.428c0.001-0.025-0.009-0.058-0.01-0.071L359.126-73.428z"/><path fill="#000000" d="M359.382-73.438c0.022,0.034-0.04,0.05-0.001,0.119c0.084,0.166,0.147,0.313,0.185,0.481          c0.027,0.075-0.022,0.208-0.001,0.281c0.05,0.174,0.155,0.639,0.14,0.362c-0.037-0.415-0.099-0.683-0.221-1.045          c-0.127-0.28-0.28-0.568-0.59-0.747c-0.088-0.048-0.177-0.085-0.273-0.098c0.123,0.024,0.245,0.08,0.337,0.174          C359.073-73.792,359.264-73.675,359.382-73.438z"/><path fill="#000000" d="M357.646-73.234l0.049-0.104c0.144-0.097,0.239-0.238,0.361-0.36l-0.082,0.023          c-0.068,0.073-0.062,0.095,0.01,0.043c-0.173,0.109-0.307,0.256-0.415,0.42C357.592-73.211,357.606-73.196,357.646-73.234z"/><polygon fill="#000000" points="357.505,-73.115 357.569,-73.212 357.562,-73.212 357.502,-73.112         "/><path fill="#000000" d="M359.43-72.399c0.05,0.494,0.023,0.967-0.065,1.413c0.006,0.036,0.015,0.064-0.003,0.108          c-0.02,0.032-0.034,0.065-0.047,0.1l-0.058,0.188l-0.018,0.068v0.002c-0.005,0.037,0.008,0.031,0.025,0.012l0.046-0.059          l-0.046,0.059c-0.019,0.027-0.036,0.059-0.054,0.095c-0.021,0.057-0.04,0.117-0.073,0.174          c0.025-0.069,0.047-0.127,0.073-0.174l0.028-0.108l0.005-0.033c-0.05,0.145-0.109,0.275-0.187,0.41l-0.041,0.085          c-0.047,0.099-0.094,0.199-0.155,0.241l-0.043,0.068l0.014-0.01l-0.021,0.022l-0.193,0.283          c-0.028,0.071-0.062,0.141-0.098,0.209l-0.072,0.044c-0.005,0.035-0.021,0.078-0.047,0.124l0.145-0.107          c0.072-0.045,0.047-0.178,0.148-0.221c-0.102,0.043-0.076,0.176-0.148,0.221l-0.145,0.107          c-0.053,0.097-0.152,0.199-0.245,0.269c0.062-0.129,0.159-0.203,0.245-0.269c0.025-0.046,0.042-0.089,0.047-0.124          l0.072-0.044c0.035-0.068,0.069-0.138,0.098-0.209c-0.132,0.182-0.264,0.366-0.412,0.544          c-0.944,1.151-1.96,2.088-3.147,3.085l-0.843,0.688l0.299,0.159c0.069-0.443,0.177-0.876,0.303-1.298          c0.455-1.49,0.863-2.879,1.641-4.267c0.289-0.534,0.746-1.557,1.03-2.055c0.296-0.716-0.147-0.53-0.187-0.503          c-0.463,0.296-0.538,0.698-1.099,1.538c0.367-0.579-0.077,0.516-0.475,1.045c-0.603,0.763-0.882,2.088-1.266,3.177          c-0.098,0.273-0.169,0.573-0.256,0.911c-0.134,0.452-0.236,0.908-0.296,1.38l-0.139,1.093l0.84-0.721          c0.966-0.828,1.9-1.688,2.883-2.686c0.346-0.365,0.593-0.74,0.833-1.09c0.185-0.249,0.408-0.497,0.552-0.707          c0.222-0.331,0.381-0.645,0.505-0.947c-0.159,0.329-0.284,0.571-0.501,0.919c-0.151,0.227,0.036-0.205,0.112-0.368          c0.03-0.07,0.152-0.139,0.179-0.213c0.085-0.15,0.136-0.286,0.194-0.473c0.02-0.083,0.078-0.048,0.088-0.091          c0.077-0.251,0.032-0.459,0.084-0.609l0.081-0.326c0.013-0.066,0.022-0.133,0.024-0.203l-0.007-0.135          c-0.022,0.034-0.049,0.045-0.075,0.056l0.032-0.219l-0.032,0.219c0.026-0.011,0.053-0.021,0.075-0.056          c-0.022-0.327-0.07-0.698-0.15-1.032l-0.005,0.005c0.034,0.197,0.047,0.395,0.011,0.601c0.012-0.089,0.03-0.079,0.038,0.023          l-0.033,0.078c-0.019-0.177-0.049-0.349-0.019-0.521l-0.036-0.109c0.002-0.057,0.023-0.058,0.039-0.072l-0.025-0.115          C359.443-72.66,359.432-72.398,359.43-72.399z"/><path fill="#000000" d="M359.207-70.409l0.027-0.091c-0.044,0.119-0.096,0.23-0.16,0.343          C359.137-70.201,359.176-70.305,359.207-70.409z"/></g></g></g></g></g><g><g><g><g><g><path fill="#000000" d="M358.545-77.562l0.194,0.181c-0.03-0.033-0.059-0.065-0.084-0.105          C358.619-77.532,358.586-77.54,358.545-77.562z"/><polygon fill="#000000" points="358.923,-77.224 358.958,-77.194 358.992,-77.174         "/><path fill="#000000" d="M359.28-76.952c-0.058-0.055-0.117-0.101-0.177-0.144C359.15-77.051,359.208-77.003,359.28-76.952z"/><path fill="#000000" d="M359.016-77.192c0.016,0.025,0.019,0.042-0.021,0.02l-0.002-0.001l0.111,0.078          C359.068-77.129,359.039-77.161,359.016-77.192z"/><path fill="#000000" d="M359.016-77.192l-0.051-0.071L359.016-77.192z"/><path fill="#000000" d="M359.254-77.305c0.039,0.022-0.012,0.067,0.068,0.114c0.176,0.123,0.338,0.225,0.479,0.388          c0.072,0.058,0.104,0.21,0.151,0.294l-0.226-0.005l0.013-0.022c0.08-0.202,0.399-0.702,0.179-0.437          c-0.115,0.145-0.198,0.281-0.272,0.411l0.39,0.009c-0.162-0.265-0.352-0.428-0.572-0.609          c-0.289-0.214-0.58-0.379-0.835-0.607c-0.068-0.066-0.119-0.139-0.166-0.211c0.057,0.097,0.127,0.195,0.217,0.297          C358.796-77.545,359.021-77.474,359.254-77.305z"/><path fill="#000000" d="M358.377-76.97l-0.104-0.093c-0.088-0.189-0.294-0.312-0.333-0.485          c-0.01,0.026-0.014,0.058-0.013,0.09c0.058,0.106,0.083,0.099,0.045,0.009c0.081,0.221,0.28,0.38,0.412,0.572          C358.39-76.899,358.409-76.908,358.377-76.97z"/><polygon fill="#000000" points="358.462,-76.761 358.384,-76.877 358.382,-76.869 358.463,-76.756         "/><path fill="#000000" d="M359.96-76.597c0.306-0.506,0.822-0.75,1.202-1.139l-0.048-0.025l-0.011,0.047          c0.004,0.045,0.012,0.077-0.008,0.131c-0.021,0.04-0.037,0.081-0.052,0.122l-0.047,0.236l-0.011,0.085v0.002          c0.001,0.046,0.014,0.035,0.027,0.009l0.039-0.078l-0.039,0.078c-0.014,0.036-0.026,0.077-0.037,0.126l-0.029,0.228          c0.002-0.089,0.015-0.164,0.029-0.228l0.01-0.137l0.002-0.04c-0.032,0.182-0.062,0.363-0.085,0.546l-0.007,0.115          c-0.002,0.133-0.004,0.266-0.043,0.346l-0.007,0.098l0.007-0.019l-0.008,0.036l-0.025,0.417l0.035,0.276l-0.034,0.094          c0.017,0.037,0.029,0.092,0.036,0.154l0.055-0.206c0.034-0.094-0.068-0.209-0.001-0.318          c-0.067,0.109,0.035,0.225,0.001,0.318l-0.055,0.206c0.013,0.132,0.005,0.302-0.022,0.439          c-0.035-0.169-0.011-0.313,0.022-0.439c-0.007-0.062-0.02-0.117-0.036-0.154l0.034-0.094l-0.035-0.276          c-0.012,0.272-0.016,0.548-0.013,0.829c0.012,1.81,0.31,3.463,0.218,5.312c-0.037,0.65-0.131,1.278-0.296,1.871l0.395,0.023          c-0.028-0.329-0.037-0.66-0.039-0.991c-0.021-1.895-0.051-3.637-0.413-5.616c-0.079-0.379-0.258-0.918-0.555-1.416          c-0.295-0.498-0.724-0.928-1.068-1.149c-0.271-0.143-0.423-0.172-0.515-0.165c-0.098,0.001-0.142,0.032-0.156,0.074          c-0.029,0.084,0.06,0.211,0.076,0.229c0.211,0.242,0.388,0.393,0.61,0.628c0.214,0.232,0.474,0.542,0.65,1.089          c-0.282-0.739,0.449,0.446,0.415,1.244c0.014,1.09,0.315,2.608,0.291,3.988c-0.004,0.343,0.019,0.706,0.034,1.121          c0.004,0.346,0.016,0.689,0.053,1.04l0.825,0.049c0.46-1.808,0.212-3.569,0.073-5.423c-0.051-0.588-0.152-1.096-0.209-1.586          c-0.028-0.358-0.003-0.742,0.002-1.03l0.024-1.219c-0.037,0.416-0.039,0.722-0.038,1.188          c0.002,0.312-0.086-0.218-0.091-0.427c-0.011-0.09,0.071-0.225,0.064-0.312c0.014-0.192,0.003-0.37,0.012-0.578          c-0.003-0.089,0.062-0.069,0.062-0.113c0.025-0.278-0.014-0.508,0.045-0.681l0.017-0.056l0.167-0.547l-0.437,0.404          c-0.079,0.073-0.157,0.133-0.238,0.188l-0.184,0.139l-0.115,0.109c0.046-0.01,0.073,0.001,0.101,0.013l-0.221,0.147          l0.221-0.147c-0.027-0.012-0.055-0.022-0.101-0.013c-0.271,0.246-0.543,0.588-0.711,0.938l0.127,0.003l-0.052-0.073          l-0.002,0.009l0.044,0.069l-0.108-0.003c0.106-0.185,0.241-0.355,0.419-0.49c-0.084,0.068-0.09,0.047-0.007-0.047          l0.091-0.043c-0.143,0.162-0.256,0.337-0.406,0.479l-0.054,0.128h0.021l0,0c-0.027-0.062-0.008-0.071,0-0.093          c-0.025-0.043-0.058-0.079-0.089-0.117l0.086,0.212h-0.015L359.96-76.597z"/><path fill="#000000" d="M360.974-76.998l0.011-0.115l-0.07,0.458C360.955-76.732,360.962-76.865,360.974-76.998z"/></g></g></g></g></g><g><g><g><g><g><path fill="#000000" d="M362.482-73.57l0.045-0.139c-0.012,0.022-0.025,0.043-0.044,0.063          C362.467-73.617,362.477-73.597,362.482-73.57z"/><polygon fill="#000000" points="362.572,-73.836 362.581,-73.859 362.582,-73.883         "/><path fill="#000000" d="M362.642-74.079c-0.021,0.04-0.031,0.081-0.042,0.122C362.617-73.99,362.631-74.03,362.642-74.079z"/><path fill="#000000" d="M362.557-73.896c0.016-0.012,0.027-0.015,0.026,0.012l-0.001,0.001l0.018-0.074          C362.587-73.933,362.572-73.912,362.557-73.896z"/><path fill="#000000" d="M362.557-73.896l-0.038,0.037L362.557-73.896z"/><path fill="#000000" d="M362.354-74.036c0.002-0.027,0.063,0.002,0.067-0.053c0.025-0.121,0.036-0.231,0.083-0.338          c0.007-0.056,0.11-0.099,0.118-0.152c0.033-0.119,0.108-0.444,0.022-0.275c-0.125,0.257-0.183,0.434-0.264,0.674          c-0.048,0.201-0.078,0.397-0.111,0.604c-0.012,0.057-0.031,0.107-0.049,0.159l0.088-0.209          C362.357-73.723,362.312-73.871,362.354-74.036z"/><path fill="#000000" d="M362.234-72.524l-0.014-0.079c0.062-0.106,0.061-0.227,0.063-0.348l-0.043,0.046          c-0.007,0.069,0.011,0.08,0.034,0.022c-0.062,0.131-0.088,0.262-0.094,0.397C362.2-72.492,362.221-72.488,362.234-72.524z"/><rect x="362.173" y="-72.484" fill="#000000" width="0.007" height="0.079"/><path fill="#000000" d="M362.803-74.599c0.149-0.306,0.325-0.577,0.524-0.816c0.005-0.027,0.004-0.05,0.03-0.069          c0.025-0.012,0.046-0.026,0.066-0.041l0.093-0.099l0.029-0.039l0.001-0.001c0.013-0.023,0-0.025-0.019-0.021l-0.051,0.018          l0.051-0.018c0.021-0.01,0.043-0.022,0.065-0.039c0.025-0.033,0.056-0.064,0.092-0.092          c-0.032,0.039-0.062,0.068-0.092,0.092l-0.048,0.061l-0.011,0.021c0.073-0.073,0.15-0.142,0.229-0.208l0.046-0.045          c0.05-0.056,0.105-0.108,0.162-0.109l0.045-0.031l-0.012,0.002l0.02-0.007c0.066-0.04,0.131-0.082,0.2-0.116          c0.037-0.037,0.075-0.076,0.117-0.107l0.062,0.007c0.011-0.025,0.034-0.047,0.064-0.066          c-0.047-0.002-0.092-0.006-0.13-0.001c-0.065-0.006-0.075,0.112-0.16,0.09c0.085,0.022,0.095-0.096,0.16-0.09          c0.038-0.005,0.083-0.001,0.13,0.001c0.062-0.042,0.159-0.063,0.24-0.058c-0.08,0.059-0.162,0.059-0.24,0.058          c-0.03,0.02-0.054,0.041-0.064,0.066l-0.062-0.007c-0.042,0.031-0.08,0.07-0.117,0.107c0.133-0.072,0.273-0.132,0.421-0.178          c0.128-0.042,0.259-0.067,0.388-0.09l0.312-0.055l-0.286-0.13c-0.834-0.378-1.732-0.341-2.632-0.051l-0.092,0.029          l-0.003,0.109l-0.001,0.033c-0.02,0.577-0.05,1.132-0.093,1.675c-0.089,1.079-0.023,2.07-0.269,3.143          c-0.086,0.412-0.125,1.164-0.175,1.576c0.044,0.553,0.365,0.309,0.384,0.285c0.282-0.304,0.192-0.571,0.394-1.244          c-0.127,0.458-0.119-0.357,0.07-0.784c0.303-0.623,0.127-1.546,0.207-2.327c0.019-0.196,0.01-0.405,0.019-0.64          c0.046-0.584,0.044-1.148,0.031-1.717l-0.264,0.389c0.479-0.2,1.078-0.292,1.653-0.199c0.216,0.033,0.411,0.053,0.581,0.1          l0.087-0.606c-0.08,0.029-0.159,0.052-0.233,0.085c-0.22,0.07-0.461,0.139-0.627,0.23c-0.259,0.145-0.447,0.32-0.601,0.501          c0.188-0.186,0.333-0.32,0.59-0.479c0.176-0.099-0.085,0.138-0.173,0.23c-0.038,0.041-0.149,0.035-0.186,0.08          c-0.096,0.074-0.16,0.17-0.239,0.271c-0.028,0.048-0.07-0.004-0.085,0.021c-0.114,0.136-0.133,0.294-0.215,0.365          l-0.164,0.165c-0.029,0.036-0.059,0.072-0.084,0.113l-0.036,0.087c0.03-0.01,0.057-0.003,0.082,0.004l-0.101,0.116          l0.101-0.116c-0.025-0.007-0.052-0.014-0.082-0.004c-0.089,0.209-0.18,0.45-0.251,0.675l0.007-0.001          c0.05-0.127,0.118-0.244,0.223-0.347c-0.043,0.046-0.056,0.03-0.025-0.033l0.057-0.029c-0.045,0.114-0.084,0.229-0.178,0.31          l-0.014,0.08c-0.024,0.03-0.043,0.02-0.062,0.02l-0.029,0.076C362.687-74.458,362.802-74.6,362.803-74.599z"/><path fill="#000000" d="M363.598-75.725l-0.042,0.05c0.062-0.061,0.127-0.118,0.193-0.173          C363.695-75.841,363.643-75.785,363.598-75.725z"/></g></g></g></g></g><g><path fill="#000000" d="M358.858-74.109c-1.268,2.531,4.906,5.064,6.807,5.697c-0.316-2.216-4.115-5.539-6.332-6.016"/><g><g><g><g><path fill="#000000" d="M360.715-73.778l0.16,0.093c-0.024-0.019-0.048-0.04-0.069-0.065          C360.774-73.777,360.748-73.775,360.715-73.778z"/><polygon fill="#000000" points="361.022,-73.596 361.05,-73.578 361.077,-73.569         "/><path fill="#000000" d="M361.307-73.441c-0.047-0.033-0.094-0.061-0.142-0.086          C361.202-73.498,361.248-73.469,361.307-73.441z"/><path fill="#000000" d="M361.096-73.591c0.012,0.019,0.015,0.032-0.018,0.022l-0.001-0.001l0.088,0.042          C361.138-73.548,361.114-73.569,361.096-73.591z"/><path fill="#000000" d="M361.096-73.591l-0.04-0.052C361.066-73.626,361.08-73.608,361.096-73.591z"/><path fill="#000000" d="M361.29-73.752c0.032,0.011-0.01,0.064,0.054,0.087c0.141,0.065,0.269,0.112,0.389,0.193          c0.063,0.024,0.106,0.146,0.168,0.171c0.139,0.07,0.509,0.238,0.319,0.101c-0.289-0.201-0.489-0.316-0.763-0.476          c-0.229-0.116-0.461-0.211-0.701-0.314c-0.066-0.03-0.125-0.066-0.186-0.102l0.238,0.158          C360.917-73.854,361.101-73.849,361.29-73.752z"/><path fill="#000000" d="M359.476-74.338l0.1,0.004c0.124,0.087,0.271,0.119,0.419,0.156l-0.051-0.056          c-0.083-0.026-0.099-0.012-0.031,0.028c-0.151-0.101-0.311-0.161-0.479-0.193C359.439-74.379,359.432-74.358,359.476-74.338          z"/><polygon fill="#000000" points="359.334,-74.418 359.434,-74.398 359.431,-74.405 359.331,-74.42         "/><path fill="#000000" d="M361.911-73.106c0.353,0.25,0.669,0.509,0.965,0.773c0.032,0.01,0.059,0.013,0.084,0.046          c0.017,0.029,0.034,0.056,0.054,0.08l0.127,0.118l0.049,0.038h0.002c0.028,0.017,0.029,0.003,0.021-0.018          c-0.013-0.021-0.022-0.041-0.029-0.06l0.029,0.06c0.014,0.024,0.031,0.051,0.055,0.078c0.041,0.033,0.083,0.069,0.122,0.111          c-0.052-0.038-0.092-0.076-0.122-0.111l-0.078-0.061l-0.025-0.015l0.282,0.279l0.062,0.054          c0.073,0.061,0.149,0.121,0.166,0.188l0.047,0.052l-0.005-0.014l0.014,0.023l0.199,0.224l0.161,0.12l0.02,0.073          c0.03,0.01,0.063,0.032,0.098,0.062l-0.056-0.149c-0.019-0.074-0.15-0.066-0.157-0.169c0.007,0.103,0.139,0.095,0.157,0.169          l0.056,0.149c0.072,0.062,0.141,0.166,0.177,0.263c-0.099-0.076-0.143-0.173-0.177-0.263          c-0.034-0.03-0.067-0.053-0.098-0.062l-0.02-0.073l-0.161-0.12l0.376,0.458c0.562,0.747,1.087,1.516,1.229,2.408          l0.172-0.144c-0.324-0.113-0.65-0.239-0.983-0.379c-0.67-0.284-1.299-0.594-1.895-0.931          c-1.16-0.673-2.342-1.235-3.122-2.299c-0.142-0.199-0.35-0.472-0.47-0.752c-0.126-0.278-0.149-0.55-0.109-0.731          c-0.003-0.236-0.021-0.384-0.112-0.409c-0.084-0.03-0.193,0.027-0.208,0.039c-0.367,0.317-0.379,0.807-0.045,1.676          c-0.23-0.589,0.321,0.341,0.651,0.827c0.431,0.798,1.56,1.3,2.406,1.826c0.215,0.136,0.458,0.249,0.727,0.387          c0.965,0.54,1.941,0.911,2.992,1.249l0.629,0.201l-0.109-0.636c-0.089-0.521-0.297-0.983-0.541-1.427          c-0.226-0.396-0.508-0.681-0.763-0.95c-0.177-0.205-0.339-0.447-0.487-0.608c-0.231-0.257-0.46-0.449-0.684-0.625          c0.235,0.212,0.413,0.361,0.658,0.617c0.161,0.173-0.172-0.065-0.295-0.161c-0.057-0.037-0.074-0.166-0.133-0.201          c-0.104-0.102-0.218-0.176-0.344-0.267c-0.059-0.034-0.007-0.078-0.036-0.096c-0.166-0.133-0.344-0.177-0.434-0.277          l-0.196-0.208c-0.041-0.039-0.083-0.077-0.131-0.113l-0.1-0.06c0.011,0.035,0.004,0.062-0.004,0.089l-0.135-0.135          l0.135,0.135c0.008-0.026,0.015-0.054,0.004-0.089l-0.775-0.449v0.008c0.145,0.093,0.278,0.196,0.396,0.337          c-0.053-0.058-0.034-0.067,0.039-0.018l0.033,0.067c-0.134-0.077-0.266-0.154-0.356-0.276l-0.094-0.038          c-0.034-0.036-0.02-0.052-0.018-0.072l-0.088-0.054C361.753-73.272,361.911-73.106,361.911-73.106z"/><path fill="#000000" d="M363.269-71.986l-0.063-0.053l0.235,0.235C363.422-71.868,363.345-71.927,363.269-71.986z"/></g></g></g></g></g><g><path fill="#000000" d="M360.769-74.334c0.854-0.345,6.836-0.679,6.615,0.729c-0.355,1.225-7.217,2.061-6.172-0.498"/><g><g><g><g><path fill="#000000" d="M361.315-72.92c0.038,0.037,0.078,0.072,0.12,0.104c-0.019-0.02-0.035-0.042-0.048-0.066          C361.367-72.911,361.344-72.912,361.315-72.92z"/><polygon fill="#000000" points="361.555,-72.732 361.578,-72.719 361.602,-72.713         "/><path fill="#000000" d="M361.803-72.629l-0.125-0.054C361.71-72.661,361.751-72.641,361.803-72.629z"/><path fill="#000000" d="M361.619-72.735c0.009,0.017,0.011,0.03-0.017,0.023l-0.001-0.001l0.076,0.03          C361.653-72.698,361.634-72.717,361.619-72.735z"/><path fill="#000000" d="M361.619-72.735l-0.031-0.045C361.596-72.766,361.605-72.751,361.619-72.735z"/><path fill="#000000" d="M361.785-72.916c0.024,0.003-0.011,0.062,0.039,0.068c0.111,0.029,0.211,0.034,0.312,0.064          c0.049-0.001,0.104,0.092,0.155,0.088c0.118,0.013,0.422-0.03,0.252-0.055c-0.254-0.038-0.421-0.062-0.631-0.135          c-0.176-0.045-0.344-0.104-0.487-0.217c-0.038-0.033-0.062-0.074-0.085-0.114c0.025,0.055,0.058,0.111,0.104,0.168          C361.504-72.967,361.649-72.967,361.785-72.916z"/><path fill="#000000" d="M361.118-74.001v0.082c-0.077,0.101-0.079,0.236-0.054,0.36l0.033-0.056          c-0.003-0.069-0.021-0.08-0.037-0.017l0.119-0.397C361.16-74.026,361.141-74.035,361.118-74.001z"/><rect x="361.155" y="-74.07" transform="matrix(0.2828 -0.9592 0.9592 0.2828 330.0793 293.3285)" fill="#000000" width="0.079" height="0.007"/><path fill="#000000" d="M362.348-72.525c0.336,0.068,0.656,0.099,0.97,0.117c0.024-0.013,0.042-0.027,0.074-0.019          c0.024,0.012,0.049,0.02,0.073,0.025l0.137,0.004l0.049-0.006l0.001-0.001c0.025-0.008,0.019-0.018,0.002-0.027          c-0.018-0.007-0.034-0.015-0.048-0.024l0.048,0.024c0.021,0.008,0.046,0.015,0.074,0.018          c0.042-0.005,0.085-0.009,0.131-0.006c-0.051,0.009-0.094,0.011-0.131,0.006l-0.077,0.011l-0.022,0.006l0.313,0.002          l0.065-0.01c0.074-0.012,0.149-0.026,0.198,0.003l0.056-0.003l-0.011-0.005l0.021,0.005l0.237-0.014l0.151-0.056          l0.058,0.027c0.02-0.02,0.048-0.035,0.083-0.046l-0.124-0.04c-0.056-0.027-0.108,0.082-0.179,0.024          c0.07,0.058,0.123-0.052,0.179-0.024l0.124,0.04c0.072-0.021,0.169-0.024,0.251-0.004c-0.091,0.043-0.176,0.028-0.251,0.004          c-0.035,0.011-0.063,0.026-0.083,0.046l-0.058-0.027l-0.151,0.056l0.471-0.044c0.464-0.053,0.908-0.144,1.344-0.284          c0.218-0.071,0.434-0.155,0.644-0.27c0.202-0.12,0.438-0.245,0.555-0.549l0.003-0.007l0.001-0.012          c0.015-0.126,0.005-0.271-0.065-0.386c-0.196-0.331-0.508-0.433-0.773-0.548c-0.275-0.103-0.551-0.172-0.824-0.234          c-1.097-0.228-2.094-0.129-3.209-0.241c-0.432-0.036-1.218,0.066-1.648,0.166c-0.595,0.267-0.148,0.459-0.146,0.463          c0.373,0.157,0.592-0.017,1.277,0.062c-0.463-0.039,0.323-0.194,0.765-0.042c0.629,0.225,1.509,0.01,2.262,0.139          l0.604,0.077c0.31,0.071,0.613,0.142,0.864,0.241c0.125,0.048,0.231,0.108,0.294,0.157c0.062,0.062,0.044,0.034,0.053,0.062          l0.011-0.051c0.026,0.007-0.156,0.197-0.355,0.291c-0.205,0.109-0.445,0.2-0.699,0.271          c-0.302,0.091-0.565,0.211-0.829,0.293c-0.195,0.047-0.413,0.044-0.573,0.062c-0.254,0.029-0.472,0.067-0.682,0.104          c0.235-0.021,0.406-0.052,0.666-0.09c0.175-0.024-0.111,0.101-0.228,0.128c-0.049,0.02-0.133-0.049-0.182-0.031          c-0.108,0.008-0.206,0.042-0.323,0.065c-0.049,0.016-0.045-0.052-0.069-0.044c-0.158,0.019-0.282,0.103-0.384,0.082          l-0.214-0.042c-0.043-0.006-0.085-0.012-0.129-0.013l-0.088,0.009c0.021,0.022,0.026,0.049,0.032,0.074l-0.141-0.037          l0.141,0.037c-0.006-0.025-0.012-0.052-0.032-0.074c-0.211,0.019-0.456,0.018-0.683-0.013l0.002,0.007          c0.13,0.026,0.254,0.059,0.385,0.12c-0.057-0.024-0.046-0.042,0.021-0.035l0.048,0.041          c-0.121,0.003-0.244-0.001-0.344-0.072l-0.08,0.004c-0.034-0.018-0.027-0.038-0.03-0.058l-0.077-0.016          C362.185-72.607,362.348-72.524,362.348-72.525z"/><path fill="#000000" d="M363.73-72.412l-0.065,0.007l0.264,0.002C363.881-72.436,363.807-72.422,363.73-72.412z"/></g></g></g></g></g><g><path fill="#000000" d="M356.403-73.233c-1.74,0.792-3.482,1.425-5.062,2.375c1.264,0.95,6.963,0.632,5.539-2.058"/><g><g><g><g><path fill="#000000" d="M356.991-71.902c-0.008,0.04-0.021,0.077-0.034,0.115c0.011-0.019,0.023-0.035,0.041-0.052          C357.012-71.862,357-71.88,356.991-71.902z"/><polygon fill="#000000" points="356.914,-71.686 356.903,-71.668 356.9,-71.648         "/><path fill="#000000" d="M356.822-71.497c0.026-0.027,0.042-0.061,0.057-0.092C356.858-71.565,356.842-71.534,356.822-71.497          z"/><path fill="#000000" d="M356.925-71.633c-0.015,0.007-0.027,0.007-0.024-0.016l0,0c-0.007,0.02-0.012,0.04-0.021,0.06          C356.896-71.605,356.908-71.621,356.925-71.633z"/><path fill="#000000" d="M356.925-71.633l0.04-0.025C356.951-71.651,356.938-71.644,356.925-71.633z"/><path fill="#000000" d="M357.105-71.467c-0.007,0.025-0.062-0.014-0.074,0.036c-0.049,0.107-0.091,0.208-0.169,0.286          c-0.026,0.047-0.134,0.045-0.161,0.086c-0.07,0.09-0.273,0.325-0.129,0.226c0.215-0.159,0.34-0.293,0.477-0.501          c0.098-0.18,0.144-0.377,0.153-0.575l0.021-0.158c-0.013,0.067-0.03,0.136-0.057,0.208          C357.13-71.77,357.177-71.623,357.105-71.467z"/><path fill="#000000" d="M356.882-72.793l0.049,0.052c-0.004,0.11,0.047,0.198,0.092,0.294l0.02-0.053          c-0.021-0.059-0.04-0.059-0.04-0.003c0.005-0.128-0.033-0.243-0.093-0.346C356.896-72.834,356.876-72.826,356.882-72.793z"/><polygon fill="#000000" points="356.873,-72.909 356.909,-72.849 356.913,-72.854 356.873,-72.912         "/><path fill="#000000" d="M356.539-71.125c-0.238,0.182-0.5,0.301-0.762,0.388c-0.016,0.02-0.024,0.04-0.054,0.041          c-0.024-0.004-0.048-0.004-0.069-0.002l-0.116,0.032l-0.039,0.018l-0.001,0.001c-0.02,0.014-0.011,0.021,0.006,0.027          l0.047,0.011l-0.047-0.011c-0.021-0.003-0.044-0.004-0.068-0.001c-0.034,0.014-0.07,0.026-0.111,0.032          c0.042-0.019,0.078-0.028,0.111-0.032l0.063-0.027l0.017-0.012l-0.268,0.062l-0.055,0.019          c-0.062,0.023-0.127,0.045-0.173,0.021l-0.049,0.007l0.011,0.005l-0.02-0.003l-0.206,0.025l-0.131,0.058l-0.051-0.027          c-0.017,0.02-0.042,0.033-0.073,0.043c0.04,0.016,0.077,0.034,0.11,0.043c0.052,0.026,0.095-0.08,0.159-0.027          c-0.064-0.053-0.107,0.054-0.159,0.027c-0.033-0.009-0.07-0.027-0.11-0.043c-0.063,0.021-0.15,0.016-0.221-0.011          c0.081-0.036,0.155-0.015,0.221,0.011c0.031-0.01,0.057-0.023,0.073-0.043l0.051,0.027l0.131-0.058l-0.411,0.034          c-0.888,0.026-1.754,0.018-2.592-0.314c-0.116-0.053-0.225-0.116-0.312-0.188l-0.014,0.277          c0.324-0.163,0.639-0.322,0.964-0.452c0.877-0.363,1.639-0.789,2.597-1.016c0.363-0.091,0.996-0.398,1.316-0.551          c0.395-0.298,0.049-0.461,0.021-0.466c-0.37-0.105-0.526,0.117-1.135,0.221c0.408-0.087-0.213,0.266-0.637,0.263          c-0.617-0.014-1.275,0.491-1.933,0.74c-0.166,0.06-0.328,0.153-0.517,0.248c-0.348,0.14-0.668,0.321-0.984,0.504          l-0.604,0.351l0.568,0.354c0.782,0.488,1.494,0.466,2.275,0.533c0.314,0.009,0.588-0.062,0.845-0.115          c0.188-0.025,0.396-0.016,0.55-0.038c0.242-0.036,0.447-0.102,0.637-0.18c-0.218,0.066-0.376,0.116-0.623,0.164          c-0.165,0.027,0.104-0.101,0.206-0.141c0.043-0.022,0.13,0.035,0.174,0.012c0.101-0.021,0.187-0.072,0.288-0.118          c0.042-0.027,0.054,0.039,0.075,0.025c0.143-0.055,0.227-0.174,0.322-0.188l0.201-0.045c0.04-0.013,0.078-0.027,0.117-0.047          l0.067-0.052c-0.028-0.009-0.047-0.028-0.064-0.048c0.037-0.014,0.094-0.024,0.131-0.041          c-0.037,0.017-0.094,0.027-0.131,0.041c0.018,0.02,0.036,0.039,0.064,0.048c0.164-0.123,0.344-0.275,0.484-0.438          l-0.007-0.003c-0.089,0.087-0.192,0.153-0.32,0.184c0.054-0.016,0.059,0.004,0.007,0.04l-0.059-0.005          c0.085-0.07,0.16-0.145,0.271-0.168l0.04-0.062c0.032-0.014,0.044,0.003,0.062,0.011l0.051-0.053          C356.688-71.188,356.54-71.122,356.539-71.125z"/><path fill="#000000" d="M355.433-70.622l0.054-0.021l-0.226,0.05C355.308-70.571,355.371-70.595,355.433-70.622z"/></g></g></g></g></g><g><g><g><g><g><path fill="#000000" d="M357.753-66.302l0.039,0.137c-0.003-0.024-0.002-0.049,0.003-0.075          C357.794-66.272,357.774-66.283,357.753-66.302z"/><polygon fill="#000000" points="357.825,-66.039 357.831,-66.015 357.842,-65.996         "/><path fill="#000000" d="M357.9-65.805c-0.007-0.043-0.019-0.083-0.032-0.121C357.872-65.89,357.882-65.85,357.9-65.805z"/><path fill="#000000" d="M357.87-65.999c-0.006,0.018-0.015,0.026-0.027,0.004l-0.001-0.001l0.026,0.07          C357.866-65.952,357.867-65.978,357.87-65.999z"/><path fill="#000000" d="M357.87-65.999l0.013-0.052L357.87-65.999z"/><path fill="#000000" d="M358.115-65.996c0.014,0.023-0.053,0.033-0.026,0.079c0.05,0.112,0.093,0.21,0.115,0.321          c0.023,0.049-0.04,0.141-0.018,0.188c0.038,0.114,0.146,0.424,0.13,0.239c-0.03-0.28-0.082-0.455-0.143-0.695          c-0.072-0.189-0.152-0.367-0.242-0.55c-0.021-0.053-0.034-0.104-0.048-0.157l0.044,0.219          C357.939-66.248,358.063-66.153,358.115-65.996z"/><path fill="#000000" d="M357.354-67.262l0.059,0.051c0.014,0.12,0.088,0.21,0.153,0.308l0.008-0.062          c-0.033-0.058-0.055-0.056-0.04,0.004c-0.027-0.138-0.083-0.257-0.161-0.362C357.361-67.308,357.343-67.298,357.354-67.262z          "/><polygon fill="#000000" points="357.326,-67.387 357.373,-67.324 357.376,-67.33 357.326,-67.391         "/><path fill="#000000" d="M358.047-65.296c0.038,0.328,0.034,0.645-0.023,0.941c0.009,0.025,0.021,0.045,0.006,0.073          c-0.017,0.021-0.028,0.043-0.038,0.065c-0.008,0.044-0.023,0.084-0.038,0.125l-0.009,0.047v0.001          c0,0.025,0.013,0.022,0.026,0.011c0.012-0.015,0.024-0.027,0.037-0.037l-0.037,0.037c-0.015,0.018-0.027,0.038-0.04,0.062          c-0.013,0.039-0.027,0.078-0.049,0.116c0.013-0.048,0.029-0.085,0.049-0.116l0.014-0.073l0.001-0.022          c-0.025,0.09-0.072,0.171-0.111,0.254l0.084,0.013l-0.003-0.02l-0.019-0.062c-0.023-0.07-0.047-0.141-0.023-0.191          l-0.01-0.054l-0.003,0.011l0.002-0.021l-0.04-0.229l-0.07-0.141l0.021-0.059c-0.021-0.017-0.038-0.044-0.051-0.076          l-0.03,0.124c-0.021,0.058,0.091,0.098,0.042,0.172c0.049-0.074-0.063-0.114-0.042-0.172l0.03-0.124          c-0.027-0.069-0.038-0.163-0.023-0.245c0.049,0.086,0.042,0.17,0.023,0.245c0.013,0.032,0.03,0.06,0.051,0.076l-0.021,0.059          l0.07,0.141l-0.084-0.452c-0.166-0.879-0.4-1.679-0.661-2.547l-0.272,0.071c0.014,0.105,0.029,0.212,0.032,0.322          c0.021,0.54-0.082,1.065-0.189,1.583c-0.112,0.547-0.189,1.088-0.175,1.665l0.551-0.114          c-0.141-0.407-0.175-0.874-0.13-1.363c0.029-0.393-0.014-1.148-0.033-1.552c-0.131-0.525-0.409-0.24-0.425-0.215          c-0.232,0.337-0.094,0.578-0.22,1.251c0.072-0.454,0.159,0.324,0.034,0.773c-0.108,0.378-0.054,0.855,0.143,1.342          l0.752-0.157c-0.027-0.299-0.023-0.629,0.04-0.938c0.036-0.182,0.052-0.381,0.087-0.606          c0.133-0.659,0.226-1.346,0.074-2.098l-0.792,0.207c0.165,0.465,0.327,0.939,0.459,1.449          c0.088,0.312,0.219,0.572,0.316,0.831c0.059,0.191,0.074,0.407,0.108,0.565c0.052,0.227,0.107,0.422,0.173,0.606          l0.275,0.779l0.227-0.707l0.021-0.066l-0.025,0.064l-0.28,0.708l-0.213-0.779l-0.162-0.592          c-0.042-0.17,0.112,0.101,0.153,0.211c0.025,0.046-0.032,0.138-0.008,0.183c0.014,0.066,0.038,0.126,0.064,0.188          l0.258,0.612l0.144-0.554l0.037-0.142c0.009-0.058,0.069-0.026,0.073-0.056c0.045-0.179-0.011-0.326,0.026-0.429l0.06-0.223          c0.011-0.045,0.013-0.09,0.014-0.138l-0.013-0.093c-0.022,0.023-0.048,0.031-0.073,0.039          c0.006-0.043,0.023-0.104,0.024-0.148c-0.001,0.044-0.019,0.105-0.024,0.148c0.025-0.008,0.051-0.016,0.073-0.039          c-0.036-0.221-0.084-0.468-0.147-0.689l-0.006,0.004c0.027,0.131,0.03,0.264,0,0.402c0.01-0.06,0.031-0.054,0.037,0.015          l-0.032,0.054c-0.02-0.118-0.053-0.231-0.015-0.349l-0.032-0.072c0.004-0.038,0.025-0.039,0.042-0.05l-0.017-0.077          C358.066-65.473,358.048-65.296,358.047-65.296z"/><path fill="#000000" d="M357.928-63.969l0.015-0.062c-0.024,0.079-0.068,0.148-0.102,0.222l0.069,0.011l-0.001-0.008          l-0.003,0.008l-0.062-0.009C357.887-63.834,357.908-63.902,357.928-63.969z"/></g></g></g></g></g></g><path fill="#000000" d="M364.251-106.064c0,0,0.258,0.723,0.398,1.818c0.43,3.287-0.17,9.94-11.824,10.556    c-16.088,0-12.316-11.094-12.316-11.094S361.839-108.475,364.251-106.064"/><g><path fill="#000000" d="M364.343-105.531c0.027,0.08,0.791,5.852,0.367,17.266c0,0,4.967-10.566,3.641-17.584L364.343-105.531z"/><path fill="#000000" d="M342.313-84.992c0,0-0.93-18.652,1.205-20.97l-3.893,0.492C339.626-105.47,338.755-88.053,342.313-84.992     z"/><path fill="#000000" d="M342.489-85.111c0,0-5.689,1.01-7.168-3.359c-5.516-16.323-4.256-30.977,8.924-34.088     c0,0,17.855-4.305,22.963,6.203c0,0,5.295,13.773-2.498,28.09c0,0,4.492-10.412,3.795-17.165c0,0-15.246,4.722-28.412,0.443     C340.093-104.987,338.69-95.285,342.489-85.111z"/></g><path fill="#000000" d="M358.054-101.5c0.576-0.372,2.713-2.009,5.395-0.543C363.448-102.043,360.978-100.382,358.054-101.5z"/><path fill="#000000" d="M363.173-101.621c0,0-2.1-1.475-4.891,0.411C358.282-101.21,361.667-100.542,363.173-101.621z"/><path fill="#000000" d="M350.565-101.207c-0.59-0.352-2.781-1.914-5.41-0.357C345.155-101.564,347.679-99.988,350.565-101.207z"/><path fill="#000000" d="M345.454-101.09c0,0,2.004-1.598,4.906,0.121C350.36-100.969,347.019-100.1,345.454-101.09z"/><path fill="none" stroke="#000000" stroke-width="0.7014" stroke-linecap="round" d="M363.456-101.791"/><ellipse transform="matrix(0.9484 -0.3172 0.3172 0.9484 49.6625 107.3224)" fill="#000000" cx="354.491" cy="-98.886" rx="0.159" ry="0.316"/><ellipse transform="matrix(0.8712 0.4908 -0.4908 0.8712 -2.8808 -186.8885)" fill="#000000" cx="354.798" cy="-98.936" rx="0.159" ry="0.316"/><path fill="#000000" d="M354.685-98.258c-0.008,0.111-0.057,0.201-0.113,0.197c-0.055-0.002-0.098-0.098-0.088-0.209    c0.004-0.111,0.057-0.199,0.109-0.195C354.649-98.463,354.69-98.369,354.685-98.258z"/></g><g><path fill="#000000" d="M410.898,364.608c0,0-16.876-13.199-19.6-0.648c0,0-9.459,21.455,7.031,18.311c0,0,7.69-1.124,9.602-3.392    l2.058-3.613c0,0,1.706-3.114-1.287-4.108c0,0-2.501-4.431,1.05-3.087C409.752,368.07,412.017,365.3,410.898,364.608z"/><path fill="#000000" d="M413.358,380.518c0,0-1.835-2.865-5.257,1.771l-4.4,1.013c0,0-4.705,0.535-6.727,1.582    c0,0-3.987,1.113-4.286,2.229c0,0-6.644,8.534,3.46,13.791c0,0,19.845,9.433,21.913-1.506c0,0-0.729-14.26,1.877-19.116    c0,0-2.082-1.143-3.091-0.621l-1.436,6.156c0,0-2.201,4.963-2.74-1.127L413.358,380.518z"/><path fill="#000000" d="M423.621,384.826c0,0-0.274-4.627-2.789-1.729c0,0-5.83,19.252,9.513,19.564c0,0,10.033,1.475,12.109-7.88    c0,0,2.345-4.479-2.32-5.983c0,0,0,0-4.913-2.668c0,0,0,0-1.523-0.805c0,0-1.674-1.038-3.812-2.796c0,0-3.368,3.663-0.623,6.372    c0,0,4.27,3.514,0.07,3.782c0,0-2.128-0.166-1.836-2.865c0,0-1.334-3.127-2.831,0.832c0,0-1.495,5.546-1.823,0.308    L423.621,384.826z"/><path fill="#000000" d="M425.771,362.618c0,0-4.326,4.789-3.902-0.84c0,0,5.136-15.075,14.734-9.555c0,0,4.517,1.795,4.685,5.203    c0,0,1.586,2.995,3.911,2.431c0,0,6.479,0.133,6.223,9.181c0,0-0.4,20.892-9.483,16.697c0,0-6.742-1.594-10.605-4.999    c0,0-6.752-3.182,0.137-2.938c0,0,2.227-0.195-1.379-2.143c0,0-4.872-2.883,7.285-1.237c0,0,4.399-1.009-6.495-3.312    c0,0-6.696-2.57,1.649-3.722c0,0,11.387-1.137-1.53-2.384c0,0-6.023,0.576-0.332-5.238c0,0,1.087-5.658-3.344-0.493    L425.771,362.618z"/><path fill="#000000" d="M419.012,368.214c0,0,0.563,7.89-3.981,5.662c0,0-2.321-1.821-2.022-5.903c0,0-0.746-14.286,2.271-22.197    c0,0,2.146-6.359,3.01-2.554c0,0-1.865,11.79-1.192,13.957L419.012,368.214z"/><path fill="#000000" d="M414.509,338.228c0.764,1.188,2.396,1.627,3.654,0.972c1.251-0.651,1.65-2.139,0.892-3.326    c-0.762-1.188-2.398-1.619-3.65-0.97C414.149,335.554,413.747,337.04,414.509,338.228z"/><path fill="#000000" d="M408.175,341.995c0.804,1.25,2.528,1.711,3.852,1.022c1.326-0.688,1.748-2.261,0.945-3.516    c-0.804-1.246-2.525-1.708-3.852-1.02C407.793,339.169,407.374,340.744,408.175,341.995z"/><path fill="#000000" d="M420.564,341.803c0.844,1.318,2.435,1.914,3.55,1.336c1.116-0.579,1.335-2.117,0.488-3.434    c-0.845-1.318-2.433-1.923-3.552-1.341C419.937,338.942,419.718,340.48,420.564,341.803z"/><path fill="#000000" d="M420.836,357.54c0,0,10.533-9.281,9.445-14.13c0,0,0.939-4.306-5.748-5.292l1.427,1.173    c0,0,3.753,2.187-0.377,6.239c0,0-3.128,1.941-5.009,0.057C420.574,345.587,418.248,356.658,420.836,357.54z"/><path fill="#000000" d="M409.612,360.504c0,0-15.831-7.375-8.483-15.329c0,0,0.605-0.634,2.165-2.398c0,0,2.217-1.783,2.317-2.157    c0,0-2.003,4.222,6.254,5.034C411.865,345.653,408.392,360.181,409.612,360.504z"/></g><g display="none"><polyline display="inline" fill-rule="evenodd" clip-rule="evenodd" fill="#000000" points="-235.01,202.203 -230.966,205.986     -233.205,214.869 -235.494,202.719   "/><polygon display="inline" fill-rule="evenodd" clip-rule="evenodd" fill="#000000" points="-223.746,191.887 -213.949,149.765     -215.494,195.326   "/><polygon display="inline" fill-rule="evenodd" clip-rule="evenodd" fill="#000000" points="-234.75,216.128 -233.03,217.159     -226.84,207.705 -231.31,204.952 -233.373,214.753 -235.437,213.895   "/><path display="inline" fill-rule="evenodd" clip-rule="evenodd" fill="#000000" d="M-231.653,190.338    c0,0,8.25-2.405-43.157-19.941l18.226,25.272l16.333,7.394L-231.653,190.338z"/><path display="inline" fill-rule="evenodd" clip-rule="evenodd" fill="#000000" d="M-233.205,187.818l-4.981,3.209l-36.625-20.631    C-274.81,170.396-232.744,185.068-233.205,187.818z"/><path display="inline" fill-rule="evenodd" clip-rule="evenodd" fill="#000000" d="M-239.046,191.027    c0,0,11.171-7.735,16.329-4.126c0,0,6.535,5.157,7.223,8.425l-12.206,9.283l-6.363,0.689L-239.046,191.027z"/><path display="inline" fill-rule="evenodd" clip-rule="evenodd" fill="#000000" d="M-237.327,189.651c0,0,6.188-3.209,7.104-2.866    c0,0-1.374,17.537-3.667,17.996L-237.327,189.651z"/><path display="inline" fill-rule="evenodd" clip-rule="evenodd" fill="#000000" d="M-238.703,190.512c0,0,7.05-3.781,8.253-2.579    c0,0,1.89,11.691-3.271,17.538C-238.875,211.315-238.703,190.512-238.703,190.512z"/><path display="inline" fill-rule="evenodd" clip-rule="evenodd" fill="#000000" d="M-234.406,205.642c0,0,4.816-5.848,3.44-17.709    c0,0-4.127,9.113-5.16,12.034L-234.406,205.642z"/><path display="inline" fill-rule="evenodd" clip-rule="evenodd" fill="#000000" d="M-229.876,187.13c0,0,7.505-2.979,14.212,7.335    c0,0-4.471-6.188-7.053-7.563C-222.717,186.901-226.898,185.068-229.876,187.13z"/><polygon display="inline" fill-rule="evenodd" clip-rule="evenodd" fill="#000000" points="-244.893,215.269 -244.206,181.916     -240.594,179.164 -238.703,216.128   "/><polygon display="inline" fill-rule="evenodd" clip-rule="evenodd" fill="#000000" points="-238.703,216.128 -235.953,219.567     -239.736,179.336 -240.594,179.164   "/><polygon display="inline" fill-rule="evenodd" clip-rule="evenodd" fill="#000000" points="-235.437,213.895 -233.373,214.753     -233.205,213.378 -238.875,178.648 -239.907,179.164   "/><polygon display="inline" fill-rule="evenodd" clip-rule="evenodd" fill="#000000" points="-235.953,219.567 -234.321,219.48     -239.907,179.336   "/><polygon display="inline" fill-rule="evenodd" clip-rule="evenodd" fill="#000000" points="-243.862,176.241 -251.943,192.401     -241.625,177.788   "/><polygon display="inline" fill-rule="evenodd" clip-rule="evenodd" fill="#000000" points="-241.625,177.788 -238.875,178.648     -251.6,193.264 -251.943,192.401   "/><path display="inline" fill-rule="evenodd" clip-rule="evenodd" fill="#000000" d="M-232.859,205.124    c0,0,6.704-7.908,17.365-9.798c0,0,18.225,4.125,38.34,20.286l-44.875-3.438L-232.859,205.124z"/><path display="inline" fill-rule="evenodd" clip-rule="evenodd" fill="#000000" d="M-215.205,195.499c0,0-3.783,0.744-7.68,3.266    c0,0,23.723,6.591,45.158,16.561C-177.727,215.325-195.379,200.542-215.205,195.499z"/><polygon display="inline" fill-rule="evenodd" clip-rule="evenodd" fill="#000000" points="-233.72,205.471 -233.205,209.766     -231.139,205.471 -232.859,214.581 -234.75,203.75   "/><path display="inline" fill-rule="evenodd" clip-rule="evenodd" fill="#000000" d="M-229.304,187.59c0,0,4.353,3.093,5.386,9.456    c0,0,1.547-6.134,0.342-8.541C-223.576,188.505-225.296,187.13-229.304,187.59z"/><path display="inline" fill-rule="evenodd" clip-rule="evenodd" fill="#000000" d="M-230.966,205.986    c0,0,4.125-8.425,15.472-10.66C-215.494,195.326-225.982,198.936-230.966,205.986z"/></g><polygon fill-rule="evenodd" clip-rule="evenodd" points="-236.583,185.085 -236.333,187.585 -233.667,186.835  "/><polygon fill-rule="evenodd" clip-rule="evenodd" points="-274.583,170.502 -256.917,195.502 -245.833,200.419 -245.667,188.083    -254.25,195.75 -247.667,180.252  "/><path fill-rule="evenodd" clip-rule="evenodd" d="M-222.333,185.666c0,0,5.333,2.583,6.833,6.75l1.583-41.998L-222.333,185.666z"/><polygon fill-rule="evenodd" clip-rule="evenodd" points="-234.333,206.251 -233.417,216.25 -233,217.001 -228.25,209.666    -232.75,206.5  "/><path fill-rule="evenodd" clip-rule="evenodd" d="M-229,186.585c0,0,0.333,13.496-2.917,17.998c0,0,6.167-9.083,15.667-10.665   C-216.25,193.918-220.583,184.333-229,186.585z"/><path fill-rule="evenodd" clip-rule="evenodd" d="M-236.25,189.001l1.75,16c0,0,4.417-2.5,4.333-18   C-230.167,187.001-234.667,188.334-236.25,189.001z"/><path fill-rule="evenodd" clip-rule="evenodd" d="M-231.25,205.875c0,0,9.438-10.938,15.75-10.5c0,0,22.833,7.542,38.25,20.042   c0,0-43-3.667-44.75-3.25L-231.25,205.875z"/><polygon fill-rule="evenodd" clip-rule="evenodd" points="-239.667,182.167 -238.333,180.167 -234.667,219.334 -238,216.438  "/><polygon fill-rule="evenodd" clip-rule="evenodd" points="-244.333,186.667 -241,183.583 -239.5,215.667 -244.833,215.167  "/><polygon fill-rule="evenodd" clip-rule="evenodd" points="-238.833,178.834 -251.667,192.167 -243.833,175.834 -242,177.834  "/><g><polygon fill="#000000" points="427.993,260.919 429.479,261.133 424.813,252.652 422.694,259.223   "/><path fill="#000000" d="M432.448,240.355c0,0,2.116,2.757,2.756,2.543l-4.028,0.214L432.448,240.355z"/><polygon fill="#000000" points="425.769,256.468 431.279,252.015 432.976,236.964 425.131,247.562 422.375,254.348   "/><polygon fill="#000000" points="426.086,209.174 433.081,236.153 429.901,251.116 416.12,260.601 415.485,206.223   "/><polygon fill="#000000" points="429.054,202.196 429.69,204.315 427.146,205.376   "/><polygon fill="#000000" points="428.844,203.467 437.11,204.951 426.934,207.496   "/><polygon fill="#000000" points="416.12,260.601 427.781,261.662 424.39,254.03   "/><polygon fill="#000000" points="415.872,260.496 407.429,240.355 410.677,237.389 422.8,238.449 419.12,242.476   "/><polygon fill="#000000" points="419.088,242.265 407.429,240.355 417.771,249.896   "/><path fill="#000000" d="M407.429,240.355c0,0,0.636-19.291,6.148-34.979l4.877,1.272c0,0,2.333,21.411,13.994,36.464    C432.448,243.112,409.973,242.687,407.429,240.355z"/><path fill="#000000" d="M424.211,209.615c0,0,0.002,5.831,4.206,7.739C428.417,217.354,422.633,216.75,424.211,209.615z"/><path fill="#000000" d="M424.178,209.615c0,0,0.105,5.831,3.921,7.103l-2.013-7.739L424.178,209.615z"/><polygon fill="#000000" points="418.774,208.875 426.086,208.979 422.374,210.994   "/><polygon fill="#000000" points="423.539,198.167 413.367,204.104 412.939,206.436 422.271,210.25 427.781,208.344     429.054,202.196   "/><polygon fill="#000000" points="418.454,208.77 413.284,206.436 412.647,208.979   "/><polygon fill="#000000" points="429.845,251.458 426.086,255.516 424.178,255.41   "/><polygon fill="#000000" points="425.98,255.516 431.176,252.229 427.04,256.044   "/><polygon fill="#000000" points="424.957,254.686 416.283,260.063 425.428,256.187   "/><polygon fill="#000000" points="428.842,203.361 427.887,207.072 428.631,206.859   "/></g><g><path fill-rule="evenodd" clip-rule="evenodd" fill="#000000" d="M557.038,214.352c0,0,4.041-4.8,15.83-2.526    c11.787,2.272,0.167-0.086,0.167-0.086l-1.599,1.602L557.038,214.352z"/><path fill="#000000" d="M553.333,257.627c0,0,2.358,5.222,5.557,6.82l-0.841-3.872L553.333,257.627z"/><polygon fill="#000000" points="531.817,241.278 527.435,238.699 530.014,238.185 533.364,240.374 533.104,240.762   "/><path fill-rule="evenodd" clip-rule="evenodd" fill="#000000" d="M577.919,241.546c0.337-0.252,2.104-2.188,2.104-2.188    l5.811,1.263l-6.398,2.021L577.919,241.546z"/><path fill-rule="evenodd" clip-rule="evenodd" fill="#000000" d="M573.119,232.958l5.642-7.41c0,0,1.096-6.903,0.506-7.238    l-1.685-4.212l-4.967,4.8c0,0-4.042,7.746-4.296,7.915c-0.251,0.168-12.291,12.628-12.291,12.628s2.104,2.948,2.527,2.779    C558.976,242.051,573.119,232.958,573.119,232.958z"/><path fill="#000000" d="M537.487,228.261l-5.67,11.599c0,0-0.516,2.579,1.933,1.16l6.443-10.053L537.487,228.261z"/><path fill="#000000" d="M560.169,246.175l-7.474,8.504c0,0-1.161,2.708,0.386,3.224c0,0,5.137,2.673,4.883,3.431    c0,0,1.096,1.936,0.926,3.114c0,0,2.189-3.872-4.462-7.577l9.515-7.578L560.169,246.175z"/><path fill-rule="evenodd" clip-rule="evenodd" fill="#000000" d="M571.521,234.221c0,0,5.557,10.692,7.914,8.842l6.398-2.189    c0,0-5.473,1.852-5.977,0.926l-4.969-8.924L571.521,234.221z"/><polygon fill-rule="evenodd" clip-rule="evenodd" fill="#000000" points="559.901,242.473 569.498,238.347 571.015,234.306     558.722,241.126   "/><polygon fill-rule="evenodd" clip-rule="evenodd" fill="#000000" points="577.329,214.687 577.088,218.277 572.416,225.665   "/><path fill-rule="evenodd" clip-rule="evenodd" fill="#000000" d="M579.351,221.423c0,0-8.336,9.514-7.83,11.199    c0,0,2.947-6.441,6.988-7.451L579.351,221.423z"/><path fill-rule="evenodd" clip-rule="evenodd" fill="#000000" d="M552.997,215.698c0,0,5.474-4.043,23.154-3.873    c0,0,3.957,0.758,1.431,2.272l-6.229,13.64l-18.944,13.723"/><polygon fill-rule="evenodd" clip-rule="evenodd" fill="#000000" points="552.179,241.794 552.661,234.138 563.858,220.413     564.786,231.947   "/><polygon fill-rule="evenodd" clip-rule="evenodd" fill="#000000" points="562.765,220.161 552.577,233.38 546.514,232.116     550.304,221.676   "/><path fill="#000000" d="M551.405,233.546c-1.031,0.386-7.475,3.092-7.475,3.092l-6.443-8.377l3.996-1.031L551.405,233.546z"/><polyline fill="#000000" points="564.163,249.396 563.521,243.468 556.174,236.767 552.179,241.794   "/><path fill="#000000" d="M559.48,240.957c0.673,0,15.407-8.082,15.407-8.082l-4.293-1.433L559.48,240.957z"/><path fill="#000000" d="M572.151,231.148c0,0,6.389-5.642,6.104-6.231C578.256,224.917,572.638,227.737,572.151,231.148z"/><polygon fill-rule="evenodd" clip-rule="evenodd" fill="#000000" points="551.986,233.463 554.007,230.6 552.997,215.698     542.726,234.474   "/><polygon fill-rule="evenodd" clip-rule="evenodd" fill="#000000" points="552.337,241.01 569.626,230.011 571.279,227.749   "/><polygon fill-rule="evenodd" clip-rule="evenodd" fill="#000000" points="552.661,234.138 554.849,231.401 571.353,227.737     551.944,241.378   "/><polygon fill-rule="evenodd" clip-rule="evenodd" fill="#000000" points="564.497,229.001 563.479,220.017 565.296,217.509     571.142,227.415   "/><path fill-rule="evenodd" clip-rule="evenodd" fill="#000000" d="M564.954,217.509l-10.358-2.525c0,0,8.505-3.916,21.556-3.158    C576.151,211.825,567.856,214.098,564.954,217.509z"/><path fill-rule="evenodd" clip-rule="evenodd" fill="#000000" d="M566.677,216.574c0,0,7.235,0.405,6.42,4.778    c-0.816,4.374,2.706-3.971,2.706-3.971L566.677,216.574z"/><polygon fill="#000000" points="558.89,247.692 563.942,249.292 559.648,246.683   "/><polygon fill="#000000" points="539.82,231.653 537.487,228.261 537.04,229.38 538.81,232.663   "/><path fill="#000000" d="M532.241,241.251c0,0-0.377-1.894-1.767-1.894L532.241,241.251z"/><path fill="#000000" d="M553.585,258.427c0,0,4.17,1.389,4.8,4.422C558.385,262.849,555.733,259.185,553.585,258.427z"/><polygon fill="#000000" points="571.772,234.558 574.804,233.169 572.025,235.063   "/><polygon fill="#000000" points="562.806,220.161 563.858,220.665 552.577,233.632   "/><path fill-rule="evenodd" clip-rule="evenodd" fill="#000000" d="M561.542,247.692c0,0,1.895,0.632,1.895,1.263l0.084-5.487    L561.542,247.692z"/><polygon fill-rule="evenodd" clip-rule="evenodd" fill="#000000" points="560.658,240.241 574.425,232.915 573.666,232.285   "/><path fill-rule="evenodd" clip-rule="evenodd" fill="#000000" d="M571.103,227.484l-6.074-9.585c0,0,6.93-5.684,7.956-5.684    c0,0,10.419-3.221,1.706,8.335L571.103,227.484z"/><polygon fill="#000000" points="563.892,221.119 564.497,229.001 563.564,221.612   "/><polygon fill="#000000" points="554.007,230.6 553.146,215.614 553.585,216.245   "/><polygon fill="#000000" points="560.658,240.241 574.739,232.789 573.666,232.663   "/><path fill-rule="evenodd" clip-rule="evenodd" fill="#000000" d="M553.661,215.626c0,0,5.494-0.568,11.367,2.273l-2.223,2.262    L553.661,215.626z"/><polygon fill-rule="evenodd" clip-rule="evenodd" fill="#000000" points="554.608,231.349 570.901,227.938 569.765,229.076   "/></g><path d="M232.088,198.124c0.479-41.7-18.346-51.228-18.346-51.228c-30.261-17.637-53.377,2.142-53.377,2.142   c-16.915,14.536-16.199,47.421-16.199,47.421c2.143,30.734,16.438,34.074,16.438,34.074c25.021,10.721,49.087,4.049,49.087,4.049   C235.188,226.242,232.088,198.124,232.088,198.124z M227.563,183.351c2.858,1.668,2.622,6.908,2.622,6.908   c-0.716-1.663-5.245-5.001-5.245-5.001C223.035,180.254,227.563,183.351,227.563,183.351z M157.374,169.12   c0,0,0.933-5.143,3.972-11.221c0,0,0-3.975,10.989-3.04c0,0,15.897,5.144,27.82,0.938c0,0,11.688-5.377,16.129,2.103   c0,0,13.266,23.06,2.865,28.674l0.073-0.123l-5.242-1.669l0.238,1.906l-3.572-1.669l-0.718,0.954l-3.573-2.144l-0.239,1.905   l-3.572-3.098l-0.952,1.667l-3.099-2.619l0.238,2.382l-3.336-3.099l-1.43,1.908l-1.907-1.668l-0.952,2.143l-1.43-1.905   l-1.668,2.143l-1.194-2.143l-1.904,2.143l-0.475-2.62l-3.1,2.861l-0.713-2.145l-3.338,2.86l-0.477-1.908l-4.528,3.098l0.239-1.668   l-5.719,3.097l-0.715-1.19l-3.096,1.431l1.427-3.574l-3.747,2.448C157.665,183.906,155.015,179.051,157.374,169.12z    M190.392,209.564H189.2c0,0-0.715-10.246-1.909-0.478l-1.187,0.236c0,0-10.486-12.151-1.669-12.628c0,0,3.573-5.956,6.909,0   C191.345,196.695,201.115,195.028,190.392,209.564z M190.867,212.66c0,1.447-1.227,2.622-2.74,2.622   c-1.513,0-2.738-1.175-2.738-2.622c0-1.446,1.226-2.62,2.738-2.62C189.641,210.04,190.867,211.214,190.867,212.66z    M150.776,180.968c0,0,4.528-3.098,2.619,1.908c0,0-4.527,3.333-5.24,5.001C148.155,187.877,147.918,182.637,150.776,180.968z    M152.445,187.877c0,0,1.668-1.427,7.386,1.669c0,0-8.581,0.239-11.439,11.437C148.392,200.982,145.295,192.168,152.445,187.877z    M151.491,213.852c0,0-5.003-5.72,0.479-15.248c0,0,4.525-5.482,12.628-4.53C164.598,194.073,151.014,200.746,151.491,213.852z    M155.779,217.663c0,0-4.047-14.773,17.636-21.442c0,0-13.346,10.484-12.391,28.831   C161.024,225.052,158.401,226.242,155.779,217.663z M171.813,216.352c0,0-5.958-3.573,0-6.911c0,0-1.669-9.771,12.866,0.954v1.191   c0,0-10.244,0.713-0.477,1.904l0.239,1.192C184.442,214.683,172.29,225.17,171.813,216.352z M191.345,229.211   c-3.336,5.956-6.909,0-6.909,0c-8.817-0.479,1.669-12.631,1.669-12.631l1.187,0.24c1.194,9.769,1.909-0.48,1.909-0.48h1.191   C201.115,230.877,191.345,229.211,191.345,229.211z M204.806,215.514c0,0,1.666,9.767-12.871-0.955v-1.193   c0,0,10.249-0.711,0.479-1.906l-0.236-1.19c0,0,12.15-10.484,12.629-1.669C204.806,208.6,210.76,212.177,204.806,215.514z    M222.561,220.047c-2.621,8.578-5.244,7.387-5.244,7.387c0.955-18.347-12.388-28.83-12.388-28.83   C226.607,205.273,222.561,220.047,222.561,220.047z M226.848,216.236c0.479-13.108-13.105-19.777-13.105-19.777   c8.103-0.956,12.628,4.523,12.628,4.523C231.852,210.515,226.848,216.236,226.848,216.236z M229.948,203.364   c-2.863-11.196-11.44-11.434-11.44-11.434c5.72-3.096,7.389-1.672,7.389-1.672C233.044,194.55,229.948,203.364,229.948,203.364z"/><path d="M215.035,170.961c-6.894-3.566-13.55-0.522-15.569,0.584c-0.123-0.009-0.239-0.019-0.368-0.027   c-0.276-0.314-0.554-0.587-0.832-0.82c0.086,0.004,0.166,0.025,0.253,0.025c2.747,0,4.978-2.229,4.978-4.977   c0-2.75-2.23-4.977-4.978-4.977c-2.746,0-4.977,2.227-4.977,4.977c0,1.422,0.604,2.697,1.562,3.604   c-0.121-0.008-0.239-0.013-0.354-0.013c-0.962,0-1.773,0.271-2.301,0.509c-0.497-2.244-1.294-4.909-1.338-5.058   c-0.029-0.097-0.078-0.187-0.143-0.265c-0.128-0.153-0.258-0.272-0.387-0.403c1.908-1.156,3.419-2.284,4.444-3.125   c10.396-2.652,11.33,4.962,11.33,4.962c5.004,6.767,8.34,0.478,8.34,0.478c5.003-9.532-7.624-9.532-7.624-9.532   c-13.105-1.19-16.68,5.718-16.68,5.718c0.814-0.354,1.58-0.651,2.313-0.912c-0.998,0.884-1.814,1.798-2.236,2.295   c-0.695-0.666-1.407-1.02-2.125-1.02c-0.989,0-1.729,0.653-2.156,1.237c-0.53-0.631-1.386-1.578-2.383-2.437   c0.672,0.244,1.367,0.515,2.105,0.836c0,0-3.574-6.908-16.682-5.718c0,0-12.628,0-7.626,9.532c0,0,4.246,5.813,8.338-0.478   c0,0,0.958-7.741,11.604-4.891c0.945,0.84,2.468,2.09,4.48,3.397c-0.031,0.052-0.064,0.104-0.09,0.151   c-0.798,1.164-1.367,3.667-1.692,5.46c-0.828-0.33-1.644-0.496-2.432-0.496c-0.357,0-0.692,0.043-1.017,0.104   c1.188-0.909,1.965-2.326,1.965-3.937c0-2.75-2.229-4.977-4.979-4.977s-4.976,2.227-4.976,4.977c0,2.748,2.225,4.977,4.976,4.977   c0.254,0,0.498-0.038,0.741-0.074c-0.471,0.33-0.878,0.709-1.23,1.094c-1.491-0.824-8.536-4.293-15.9-0.781   c0,0-7.39,7.147,7.388,7.147c0,0,3.031-0.009,6.934-4.017c-0.036,0.076-0.062,0.136-0.069,0.152   c-0.071,0.169-0.078,0.358-0.019,0.531c0.676,1.997,3.369,2.915,6.371,3.297c-5.432,0.606-12.522,2.054-15.432,5.516   c0,0,0,3.338,3.097,0.957c0,0,1.908-5.243,19.063-5.006c0,0,11.915-0.713,19.302,2.62c0,0,3.099,4.291,4.527,0.954   c0,0,2.201-3.428-17.865-5.09c5.532-0.774,6.153-3.046,6.209-3.353c0.029-0.156,0.007-0.315-0.062-0.459   c3.844,3.884,6.815,3.896,6.815,3.896C222.422,178.108,215.035,170.961,215.035,170.961z M190.573,176.786   c-0.618,0-1.276-0.015-2.064-0.044c-0.01,0.001-0.965,0.068-2.315,0.068c-4.909,0-8.233-0.84-9.035-2.261   c0.447-0.868,2.01-3.471,4.652-3.471c0.682,0,1.404,0.17,2.153,0.507l-0.039,0.509c-0.031,0.405,0.267,0.762,0.671,0.804   c0.396,0.046,0.768-0.246,0.821-0.648c0.192-1.474,0.886-5.569,1.771-6.811c0.021-0.029,0.042-0.064,0.059-0.096   c0.004-0.009,0.462-0.86,1.097-0.86c0.393,0,0.865,0.306,1.374,0.887c0.242,0.82,1.393,4.783,1.596,6.627   c0.041,0.375,0.354,0.661,0.731,0.668c0.005,0,0.01,0,0.014,0c0.372,0,0.688-0.272,0.742-0.642l0.107-0.735   c0.354-0.179,1.027-0.451,1.841-0.451c1.751,0,3.33,1.283,4.579,3.715C198.952,175.121,197.278,176.786,190.573,176.786z"/><g><path fill="#000000" d="M468.598,290.451c0,0,3.729-0.944,4.45-1.668c0,0,2.636-1.817,3.969-1.817c0,0,3.413-1.781,3.857-1.708    c0,0,3.337-2.521,4.674-2.295c0,0,3.04-1.339,3.634-2.525c0,0,0.962-1.113,1.557-1.482c0,0,1.632-2.15,3.263-3.856    c0,0,8.231-7.862,8.529-8.383c0,0,1.931,2.821,2.003,4.747l-8.231,12.312l-14.685,6.23l-10.09,2.596c0,0-2.372,0.52-2.594,0.52    C468.709,293.12,468.598,290.451,468.598,290.451z"/><path fill="#000000" stroke="#737A7F" stroke-width="0.7745" d="M518.195,294.932c0,0,0.929-7.438-1.669-10.938    c0,0,0.174-3.223-1.106-5.919c0,0-0.517-2.016,0.393-2.887l0.426-4.438"/><path fill="#000000" d="M516.366,270.982c0-2.861-0.487-1.367-1.376,0.111C513.323,273.874,516.366,270.982,516.366,270.982z"/><path fill="#000000" d="M468.413,294.04c0,0,3.411-5.887,12.238-6.893c0,0,6.304-1.317,9.864-4.725c0,0,5.935-5.577,7.045-8.906    c0,0,0.444-2.942,3.412-2.478c0,0,5.786-0.311,8.455,0.385c0,0,6.526-0.229,6.751-0.85c0,0-0.15,4.261-0.67,5.034    c0,0-0.445,2.244,0.373,3.795c0,0,0.592,2.556,0.592,3.948c0,0,0.222,1.627,0.594,1.705c0,0,2.152,7.513,1.114,10.378    c0,0-0.966,2.245-22.104,1.163C496.077,296.598,469.452,296.132,468.413,294.04z"/><path fill="#000000" stroke="#EEA434" stroke-width="0.3872" stroke-linecap="round" stroke-dasharray="1.5489" d="M469.49,291.716    c0,0,2.78-3.296,7.675-4.357c0,0,9.569-1.701,11.792-4.036c0,0,9.011-7.864,8.79-10.199c0,0,0.778-2.659,7.342-1.595    c0,0,8.901,0.742,10.68-0.215"/><path fill="#000000" stroke="#EEA434" stroke-width="0.3872" stroke-linecap="round" stroke-dasharray="1.5489" d="M469.933,292.564    c0,0,2.782-3.294,7.676-4.355c0,0,9.569-1.7,11.793-4.038c0,0,9.012-7.862,8.791-10.199c0,0,0.778-2.658,7.342-1.593    c0,0,8.456,0.744,10.234-0.214"/><path fill="#000000" stroke="#EEA434" stroke-width="0.3872" stroke-linecap="round" stroke-dasharray="1.5489" d="M473.383,293.79    c0,0,25.363-0.558,31.819-22.696"/><path fill="#000000" stroke="#EEA434" stroke-width="0.3872" stroke-linecap="round" stroke-dasharray="1.5489" d="M473.938,294.344    c0,0,25.367-0.554,31.818-22.695"/><path fill="#000000" stroke="#EEA434" stroke-width="0.3872" stroke-linecap="round" stroke-dasharray="1.5489,0.7745" d="    M471.493,291.119c0,0,2.89,0.333,3.892,2.779"/><path fill="#000000" stroke="#EEA434" stroke-width="0.3872" stroke-linecap="round" stroke-dasharray="1.5489,0.7745" d="    M470.49,291.673c0,0,2.893,0.337,3.893,2.782"/><path fill="#000000" d="M468.86,293.49c0,0,0.518-2.001,0.668-3.632c0,0-6.232-0.593-8.087,1.333    C461.441,291.191,465.003,292.452,468.86,293.49z"/><path fill="#000000" d="M473.457,300.314c0,0,7.417,1.634,18.615,0.892c0,0,24.106,0.074,25.068-0.074    c0,0,1.485-1.262,1.113-5.639l-8.214,1.02l-11.294-0.276l-14.24-0.298l-9.343-0.667L473.457,300.314z"/><path fill="#000000" stroke="#737A7F" stroke-width="0.5809" d="M474.717,298.313c0,0,7.418,1.855,20.399,1.336    c0,0,22.173,0,22.617-0.668"/><path fill="#000000" d="M461.627,291.191c0,0-2.297,2.449-1.929,5.638c0,0,5.194,2.3,15.205,3.933l0.816-5.49    C475.72,295.271,461.184,292.38,461.627,291.191z"/><path fill="#000000" d="M461.294,291.191c0,0-2.3,2.449-1.93,5.638c0,0,5.193,2.3,15.204,3.933l0.816-5.49    C475.385,295.271,460.848,292.38,461.294,291.191z"/><path fill="#000000" d="M517.364,296.829c-0.02-0.223,0.89,0.075,1.187-0.372c0,0,0.521,0.817-0.297,4.007    c0,0-0.426,1.498-1.354,0.787c-0.017-0.014-0.036-0.03-0.055-0.045C516.846,301.206,517.662,300.389,517.364,296.829z"/><path fill="#000000" d="M517.586,296.829c-0.019-0.223,0.89,0.075,1.188-0.372c0,0,0.521,0.817-0.298,4.007    c0,0-0.428,1.498-1.351,0.787c-0.019-0.014-0.037-0.03-0.058-0.045C517.067,301.206,517.884,300.389,517.586,296.829z"/><path fill="#000000" d="M511.877,284.369c0,2.866-2.324,5.191-5.191,5.191c-2.869,0-5.192-2.325-5.192-5.191    c0-2.87,2.323-5.19,5.192-5.19C509.553,279.179,511.877,281.499,511.877,284.369z"/><path fill="#000000" stroke="#C9CDD3" stroke-width="0.3872" d="M511.358,284.369c0,2.581-2.095,4.674-4.673,4.674    c-2.581,0-4.674-2.093-4.674-4.674c0-2.58,2.093-4.672,4.674-4.672C509.264,279.697,511.358,281.789,511.358,284.369z"/><circle fill="#000000" stroke="#C9CDD3" stroke-width="0.3872" cx="490.24" cy="293.142" r="1.018"/><circle fill="#000000" stroke="#C9CDD3" stroke-width="0.3872" cx="495.761" cy="293.142" r="1.017"/><ellipse fill="#000000" stroke="#C9CDD3" stroke-width="0.3872" cx="475.156" cy="290.241" rx="1.2" ry="1.016"/><ellipse fill="#000000" stroke="#C9CDD3" stroke-width="0.3872" cx="479.955" cy="288.783" rx="1.199" ry="1.016"/><ellipse fill="#000000" stroke="#C9CDD3" stroke-width="0.3872" cx="484.32" cy="287.476" rx="1.2" ry="1.016"/><ellipse fill="#000000" stroke="#C9CDD3" stroke-width="0.3872" cx="488.238" cy="285.804" rx="1.199" ry="1.02"/><ellipse fill="#000000" stroke="#C9CDD3" stroke-width="0.3872" cx="492.492" cy="283.588" rx="1.09" ry="1.053"/><circle fill="#000000" stroke="#C9CDD3" stroke-width="0.3872" cx="495.504" cy="280.975" r="1.198"/><circle fill="#000000" stroke="#C9CDD3" stroke-width="0.3872" cx="497.972" cy="277.408" r="1.199"/><path fill="#000000" stroke="#C9CDD3" stroke-width="0.3872" d="M501.939,273.923c0,0.624-0.539,1.129-1.2,1.129    s-1.201-0.505-1.201-1.129c0-0.619,0.54-1.125,1.201-1.125S501.939,273.304,501.939,273.923z"/><path fill="#000000" d="M473.605,287.782c0,0,0.594,2.742,1.484,3.041c0,0,0.739,0.519,0.666-1.483c0,0-0.963-2.15-0.593-2.374    C475.163,286.966,474.049,287.261,473.605,287.782z"/><path fill="#000000" d="M482.21,283.926l0.962,3.04c0,0,0.892,1.334,1.41,0.964c0,0,0.297-0.74,0.147-1.779l-1.11-3.043    C483.619,283.107,482.505,283.107,482.21,283.926z"/><path fill="#000000" d="M486.066,282.218c0,0,1.038,4.081,2.151,4.229c0,0,0.52-0.667,0.37-1.926l-1.038-2.896    C487.55,281.624,486.511,281.698,486.066,282.218z"/><path fill="#000000" d="M492.741,284.072c0,0-1.187,0.075-1.855-0.815l-2.298-2.448c0,0,0.074-0.889,1.112-1.261    c0,0,2.372,2.596,2.743,3.115C492.443,282.663,493.039,283.774,492.741,284.072z"/><path fill="#000000" d="M491.258,277.843c0,0,3.56,4.375,4.522,3.707c0,0,0.151-0.966-0.148-1.483l-3.336-3.56    C492.296,276.507,491.109,277.176,491.258,277.843z"/><path fill="#000000" d="M494.001,274.504c0,0,2.744,3.933,4.451,3.188c0,0-0.146-1.11-0.593-1.408l-2.672-2.744    C495.188,273.54,494.371,273.466,494.001,274.504z"/><path fill="#000000" d="M497.414,271.315c0,0,1.704,2.744,3.264,3.115c0,0,0.741,0.073,0.147-1.484l-2.225-2.743    C498.601,270.203,497.933,270.647,497.414,271.315z"/><path fill="#000000" d="M478.129,286.002l1.409,3.264c0,0,1.408,0.443,0.148-4.156C479.687,285.109,478.5,285.408,478.129,286.002    z"/><polygon fill="#000000" points="506.611,281.081 507.604,283.092 509.82,283.415 508.217,284.979 508.595,287.189     506.611,286.145 504.629,287.189 505.008,284.979 503.401,283.415 505.62,283.092   "/><path fill="#000000" stroke="#737A7F" stroke-width="0.7745" stroke-linecap="round" d="M461.294,291.414    c0,0,12.867,4.378,26.44,4.487c0,0,27.925,1.447,30.594-0.779"/></g><path d="M-250.204,20.315c-12.265,0-22.296,6.513-23.296,14.867v0.184l0.061,28.63l0.029-0.032   c0.478,8.439,10.438,15.165,22.791,15.165c12.352,0,22.754-6.129,23.231-15.129l0.013,0.062l0.031-26.495c0-0.421,0-0.637,0-1.067   C-227.344,27.772-237.549,20.315-250.204,20.315z M-250.774,50.495c-11.893,0-21.268-6.619-21.268-14.412   c0-6.114,6.458-12.333,15.417-13.708c-1.861,1.506-2.581,2.411-3.104,6.938c-0.333,0.521-0.281,1.145-0.281,1.354v9.417   c0,1.753,0.87,3.083,2.917,3.083h12.417c2.046,0,2.667-1.247,2.667-3v-9.688c0-1.753-0.61-2.312-2.656-2.312h-10.476   c-1.191,0.042-1.686-0.035-2.566,0.125c-0.125-6.125,4.448-6.047,4.917-6.25c0.315,0.026,1.281-0.093,2.018-0.093   c11.893,0,21.939,6.481,21.939,14.273C-228.834,44.013-238.881,50.495-250.774,50.495z"/><path d="M-201.204,20.315c-12.265,0-22.296,6.513-23.296,14.867v0.184l0.061,28.63l0.029-0.032   c0.478,8.439,10.438,15.165,22.791,15.165c12.352,0,22.754-6.129,23.231-15.129l0.013,0.062l0.031-26.495c0-0.421,0-0.637,0-1.067   C-178.344,27.772-188.549,20.315-201.204,20.315z M-201.773,50.495c-11.894,0-21.268-6.619-21.268-14.412   c0-6.114,6.457-12.333,15.416-13.708c-1.861,1.506-2.58,2.411-3.104,6.938c-0.334,0.521-0.281,1.145-0.281,1.354v9.417   c0,1.753,0.869,3.083,2.916,3.083h12.417c2.046,0,2.667-1.247,2.667-3v-9.688c0-1.753-0.61-2.312-2.656-2.312h-10.477   c-1.191,0.042-1.686-0.035-2.566,0.125c-0.125-6.125,4.448-6.047,4.918-6.25c0.314,0.026,1.281-0.093,2.018-0.093   c11.893,0,21.939,6.481,21.939,14.273C-179.834,44.013-189.881,50.495-201.773,50.495z"/><path d="M316.187,154.83l-6.103-4.541c-2.265,1.893-4.662,3.339-7.074,4.453l8.197,7.949   C316.619,159.552,316.187,154.83,316.187,154.83z"/><path d="M308.949,165.188v-0.24l-0.651,0.356C308.703,165.231,308.949,165.188,308.949,165.188z"/><path d="M280,157.668c0.567,2.838,5.676,6.527,5.676,6.527c2.555,3.689,7.237,3.122,7.237,3.122l2.129,1.562   c1.314-0.554,2.816-1.056,4.334-1.5l-7.967-9.476C284.889,158.636,280,157.668,280,157.668z"/><path fill-rule="evenodd" clip-rule="evenodd" d="M289.625,147.703c0,0-1.012-2.337,1.598-1.877l81.106,77.628   c0,0,0.214,3.611-4.202,4.026L289.625,147.703z"/><path fill-rule="evenodd" clip-rule="evenodd" d="M286.33,149.141c0,0-0.83-2.407,1.737-1.75l74.946,83.589   c0,0-0.062,3.617-4.496,3.694L286.33,149.141z"/></g><text x="0" y="115" fill="#000000" font-size="5px" font-weight="bold" font-family="'Helvetica Neue', Helvetica, Arial-Unicode, Arial, Sans-serif">Created by Linda Yuki Nakanishi</text><text x="0" y="120" fill="#000000" font-size="5px" font-weight="bold" font-family="'Helvetica Neue', Helvetica, Arial-Unicode, Arial, Sans-serif">from the Noun Project</text></svg>