<svg id="Capa_1" enable-background="new 0 0 512 512" height="512" viewBox="0 0 512 512" width="512" xmlns="http://www.w3.org/2000/svg"><g><g><g><ellipse cx="317.782" cy="317.375" fill="#f7f6f7" rx="182.299" ry="83.515"/><path d="m317.782 233.86c-5.206 0-10.357.106-15.453.301 93.447 3.594 166.846 39.474 166.846 83.213s-73.399 79.619-166.846 83.213c5.095.196 10.247.302 15.453.302 100.681 0 182.299-37.391 182.299-83.515 0-46.123-81.618-83.514-182.299-83.514z" fill="#edebed"/><path d="m143.167 308.065c-11.178 1.52-20.859-7.927-19.47-19.122 11.308-91.167 93.89-124.702 194.085-124.702s182.778 33.535 194.085 124.702c1.388 11.195-8.292 20.643-19.469 19.123-51.363-6.985-110.184-11.845-175.136-11.819-64.531.025-122.996 4.869-174.095 11.818z" fill="#e17f85"/><g><path d="m511.867 288.943c-11.307-91.166-93.89-124.702-194.085-124.702-5.202 0-10.353.096-15.453.28 93.122 3.363 167.912 37.988 178.632 124.422.863 6.96-2.553 13.242-7.947 16.636 6.573.793 13.036 1.623 19.383 2.486 11.178 1.521 20.858-7.927 19.47-19.122z" fill="#de646e"/></g><path d="m339.584 400.293c-15.107-77.769-15.104-157.724.008-235.492-7.161-.373-14.436-.56-21.81-.56-11.718 0-23.19.465-34.34 1.421-13.649 77.314-13.653 156.425-.011 233.74 11.126.972 22.607 1.487 34.351 1.487 7.379.001 14.652-.206 21.802-.596z" fill="#655e67"/><path d="m308.827 400.779c2.966.071 5.95.111 8.955.111 7.379 0 14.652-.206 21.802-.597-15.107-77.769-15.104-157.723.007-235.491-7.161-.373-14.436-.56-21.81-.56-5.156 0-10.254.106-15.308.289 2.079.076 4.152.164 6.212.271-15.112 77.768-15.115 157.722-.008 235.491z" fill="#544f56"/><g fill="#e2dfe3"><path d="m440.531 354.619c-1.977 0-3.955-.755-5.464-2.263-3.017-3.018-3.017-7.909 0-10.928l10.119-10.119c3.018-3.016 7.909-3.016 10.928 0 3.017 3.018 3.017 7.909 0 10.928l-10.119 10.119c-1.509 1.508-3.487 2.263-5.464 2.263z"/><path d="m369.681 338.425c-1.978 0-3.955-.755-5.464-2.264l-10.119-10.12c-3.017-3.017-3.017-7.909.001-10.927 3.016-3.017 7.908-3.016 10.927.001l10.119 10.12c3.017 3.017 3.017 7.909-.001 10.927-1.508 1.509-3.486 2.263-5.463 2.263z"/><path d="m375.639 380.41c-1.978 0-3.955-.755-5.464-2.264-3.017-3.017-3.017-7.909.001-10.927l10.12-10.119c3.017-3.017 7.909-3.016 10.927.001 3.017 3.017 3.017 7.909-.001 10.927l-10.12 10.119c-1.508 1.509-3.486 2.263-5.463 2.263z"/><path d="m409.208 345.216c-1.977 0-3.955-.755-5.464-2.263l-10.119-10.119c-3.017-3.018-3.017-7.909 0-10.928 3.018-3.016 7.909-3.016 10.928 0l10.119 10.119c3.017 3.018 3.017 7.909 0 10.928-1.509 1.509-3.487 2.263-5.464 2.263z"/></g></g><g><ellipse cx="193.411" cy="284.527" fill="#f7f6f7" rx="182.299" ry="83.515" transform="matrix(.866 -.5 .5 .866 -116.351 134.825)"/><path d="m351.287 193.377c-11.58-20.057-39.882-27.914-76.23-24.397 21.218 2.452 37.295 10.489 45.325 24.397 23.062 39.944-28.926 113.135-116.118 163.475-43.411 25.063-87.362 39.734-123.403 43.221 39.72 4.59 97.476-10.408 154.308-43.221 87.192-50.34 139.18-123.531 116.118-163.475z" fill="#edebed"/><path d="m37.536 363.772c-8.92 6.906-22.028 3.564-26.423-6.825-35.791-84.606 18.96-154.94 105.732-205.037s175.058-62.347 230.434 10.952c6.8 9.001 3.141 22.023-7.299 26.295-47.975 19.632-101.345 44.834-157.582 77.332-55.874 32.287-104.084 65.715-144.862 97.283z" fill="#e17f85"/><path d="m347.278 162.862c-31.167-41.255-72.76-55.409-118.639-50.969 33.556 3.515 63.737 19.205 87.734 50.969 6.8 9.001 3.141 22.023-7.299 26.295-47.975 19.632-101.345 44.833-157.582 77.332-53.28 30.789-99.576 62.611-139.12 92.872 5.269 8.451 16.977 10.748 25.163 4.41 40.778-31.567 88.989-64.995 144.861-97.283 56.237-32.498 109.607-57.7 157.582-77.332 10.44-4.272 14.1-17.294 7.3-26.294z" fill="#de646e"/><path d="m253.751 345.435c-51.968-59.796-91.943-129.041-117.739-203.946-6.388 3.258-12.782 6.733-19.168 10.42-10.148 5.859-19.85 11.998-29.029 18.401 26.837 73.781 66.389 142.294 116.86 202.43 10.122-4.721 20.322-10.016 30.493-15.888 6.391-3.689 12.586-7.505 18.583-11.417z" fill="#655e67"/><path d="m136.012 141.489c-6.388 3.258-12.782 6.733-19.168 10.42-2.226 1.286-4.422 2.59-6.605 3.902 23.414 62.906 56.926 121.566 99.205 173.667 7.037 8.671 4.8 21.599-4.866 27.192-.105.061-.21.122-.316.182-2.884 1.665-5.77 3.271-8.656 4.843 2.983 3.712 6.005 7.394 9.069 11.045 10.122-4.721 20.322-10.016 30.493-15.888 6.391-3.69 12.586-7.505 18.583-11.418-51.967-59.796-91.942-129.04-117.739-203.945z" fill="#544f56"/><g fill="#e2dfe3"><path d="m80.022 380.951c-.662 0-1.335-.086-2.005-.266-4.122-1.104-6.568-5.341-5.464-9.463l3.704-13.823c1.105-4.122 5.347-6.568 9.463-5.463 4.122 1.104 6.568 5.341 5.464 9.463l-3.704 13.823c-.925 3.452-4.047 5.729-7.458 5.729z"/><path d="m149.973 373.867c-.662 0-1.335-.086-2.005-.266-4.122-1.105-6.567-5.341-5.463-9.463l3.704-13.823c1.105-4.123 5.345-6.567 9.463-5.463 4.122 1.105 6.567 5.341 5.463 9.463l-3.704 13.823c-.924 3.452-4.047 5.729-7.458 5.729z"/><path d="m121.325 358.784c-.662 0-1.335-.086-2.005-.266l-13.823-3.704c-4.122-1.105-6.567-5.341-5.463-9.463 1.105-4.122 5.343-6.57 9.463-5.463l13.823 3.704c4.122 1.105 6.567 5.341 5.463 9.463-.925 3.452-4.047 5.729-7.458 5.729z"/><path d="m314.479 256.444c-.662 0-1.334-.086-2.004-.266-4.122-1.104-6.568-5.34-5.464-9.462l3.703-13.823c1.104-4.123 5.344-6.573 9.462-5.464 4.122 1.104 6.568 5.34 5.464 9.462l-3.703 13.823c-.925 3.453-4.047 5.73-7.458 5.73z"/><path d="m245.024 277.844c-.662 0-1.335-.086-2.005-.266l-13.823-3.703c-4.122-1.104-6.568-5.34-5.464-9.462 1.105-4.123 5.344-6.569 9.463-5.464l13.823 3.703c4.122 1.104 6.568 5.34 5.464 9.462-.925 3.453-4.047 5.73-7.458 5.73z"/><path d="m271.177 311.225c-.662 0-1.334-.086-2.004-.266-4.122-1.104-6.568-5.34-5.464-9.462l3.703-13.823c1.104-4.123 5.345-6.57 9.462-5.464 4.122 1.104 6.568 5.34 5.464 9.462l-3.703 13.823c-.925 3.454-4.046 5.73-7.458 5.73z"/><path d="m282.651 263.963c-.662 0-1.335-.086-2.005-.266l-13.823-3.704c-4.122-1.105-6.567-5.341-5.463-9.463s5.34-6.569 9.463-5.463l13.823 3.704c4.122 1.105 6.567 5.341 5.463 9.463-.925 3.452-4.047 5.729-7.458 5.729z"/></g></g></g></g></svg>